<?xml version="1.0" encoding="UTF-8"?>
<svg version="1.1" xmlns="http://www.w3.org/2000/svg" width="1024" height="1024">
<path d="M0 0 C337.92 0 675.84 0 1024 0 C1024 337.92 1024 675.84 1024 1024 C686.08 1024 348.16 1024 0 1024 C0 686.08 0 348.16 0 0 Z " fill="#FDFEFE" transform="translate(0,0)"/>
<path d="M0 0 C7.26 0 14.52 0 22 0 C22 0.66 22 1.32 22 2 C23.03125 2.0825 24.0625 2.165 25.125 2.25 C29.45776962 3.08860057 31.52475878 4.32116823 35 7 C35.85078125 7.65162109 35.85078125 7.65162109 36.71875 8.31640625 C45.41205443 15.31299117 49.76592516 23.02002989 52 34 C52.68043448 41.01698061 52.06773703 47.27985464 50 54 C50.99 54 51.98 54 53 54 C53 54.66 53 55.32 53 56 C55.31 56.66 57.62 57.32 60 58 C60 58.66 60 59.32 60 60 C62.97 60.99 65.94 61.98 69 63 C69 63.66 69 64.32 69 65 C69.68835938 65.25265625 70.37671875 65.5053125 71.0859375 65.765625 C74.42402894 67.17961548 77.50330569 68.9222141 80.625 70.75 C81.86805586 71.46819914 83.11155089 72.18563864 84.35546875 72.90234375 C84.9695459 73.2566748 85.58362305 73.61100586 86.21630859 73.97607422 C92.66681738 77.67898057 99.08850431 81.23540172 106 84 C106 84.66 106 85.32 106 86 C106.67933594 86.24621094 107.35867188 86.49242187 108.05859375 86.74609375 C112.22287223 88.5213041 116.03442896 90.85506044 119.91601562 93.16601562 C122.89197231 94.90654813 125.56829934 96.44373929 129 97 C129 97.66 129 98.32 129 99 C131.97 99.99 134.94 100.98 138 102 C138 102.66 138 103.32 138 104 C139.2375 104.37125 139.2375 104.37125 140.5 104.75 C144.52373471 106.18704811 148.21979024 108.02354515 152 110 C152 110.66 152 111.32 152 112 C152.56847656 112.11472656 153.13695312 112.22945313 153.72265625 112.34765625 C156.2368081 113.06783354 158.18162862 114.119946 160.4375 115.4375 C163.56123498 117.22101865 166.59911192 118.79323326 170 120 C170 120.66 170 121.32 170 122 C171.22396484 122.34224609 171.22396484 122.34224609 172.47265625 122.69140625 C176.80721192 124.299464 180.50682509 126.52904932 184.4375 128.9375 C190.42098618 132.61048972 190.42098618 132.61048972 196.75390625 135.61328125 C199.75011125 136.89324849 201.93481217 138.27825115 204.5 140.25 C207.55092257 142.3746562 209.32978381 143.43302222 213.0625 142.875 C214.5165625 142.441875 214.5165625 142.441875 216 142 C216 141.34 216 140.68 216 140 C217.6029053 139.18501438 219.20737278 138.37310073 220.8125 137.5625 C221.70582031 137.11003906 222.59914063 136.65757812 223.51953125 136.19140625 C232.15184449 132.04517706 245.15955497 132.53130995 254.32421875 134.8359375 C256.79743493 136.02276266 258.82470167 137.33200072 261 139 C262.28390625 139.87205078 262.28390625 139.87205078 263.59375 140.76171875 C269.79632135 145.25858298 273.67332277 150.12901244 277 157 C277.81210938 158.60681641 277.81210938 158.60681641 278.640625 160.24609375 C280.25425585 164.70212606 280.41078387 168.31382524 280.3125 173 C280.31572266 173.76828125 280.31894531 174.5365625 280.32226562 175.328125 C280.2763322 180.23882557 279.55475738 184.34192212 278 189 C277.34 189 276.68 189 276 189 C275.87625 190.08474609 275.87625 190.08474609 275.75 191.19140625 C273.68187825 198.93609133 265.56763118 204.75543693 259.04296875 208.84375 C258.36878906 209.2253125 257.69460938 209.606875 257 210 C256.33613281 210.3815625 255.67226563 210.763125 254.98828125 211.15625 C253 212 253 212 249 212 C249 246.65 249 281.3 249 317 C250.65 317.33 252.3 317.66 254 318 C261.84095887 322.06366216 268.01183853 327.73572539 271.39355469 335.97729492 C272.52721449 339.75844286 272.47174222 343.51832254 272.4375 347.4375 C272.45748047 348.24509766 272.47746094 349.05269531 272.49804688 349.88476562 C272.49093005 358.71674629 268.77832273 364.75808885 262.9453125 371.171875 C259.93434843 374.0014557 256.57320142 375.96937578 253 378 C251.4728109 379.5271891 251.85990464 380.89978252 251.84178162 383.03053284 C251.8319928 383.89856537 251.82220398 384.7665979 251.81211853 385.66093445 C251.80636307 386.62046524 251.8006076 387.57999603 251.79467773 388.56860352 C251.77982834 390.07574921 251.77982834 390.07574921 251.76467896 391.61334229 C251.73295916 394.95183921 251.70826527 398.29035039 251.68359375 401.62890625 C251.66303326 403.93676637 251.64203704 406.24462264 251.62062073 408.55247498 C251.56530653 414.64013567 251.51593862 420.72783086 251.46777344 426.81555176 C251.41762648 433.0222482 251.36190498 439.22889426 251.30664062 445.43554688 C251.19894479 457.62365492 251.09752537 469.81180663 251 482 C251.7734375 482.14953125 252.546875 482.2990625 253.34375 482.453125 C259.14434593 483.64736534 261.91809279 485.72823664 266 490 C267.33059361 491.08669661 268.66414041 492.16978333 270 493.25 C275.96511515 498.42726975 279.59936134 505.232822 281 513 C281.30171284 519.78059906 281.27127489 526.31817915 280 533 C279.34 533 278.68 533 278 533 C277.87625 533.94875 277.7525 534.8975 277.625 535.875 C277 539 277 539 275 541 C274.79375 541.721875 274.5875 542.44375 274.375 543.1875 C272.25169804 547.53061764 268.73013789 550.02135509 265 553 C264.44054687 553.47953125 263.88109375 553.9590625 263.3046875 554.453125 C254.47667422 561.53259459 242.8667431 562.06695877 232 561 C228.12840718 560.03328649 224.60727059 558.69432406 221 557 C220.00613281 556.53787109 220.00613281 556.53787109 218.9921875 556.06640625 C217.64451471 555.41137459 216.31817745 554.71252835 215 554 C215 553.34 215 552.68 215 552 C210.0674666 553.97802101 205.68017843 556.30180072 201.25 559.25 C200.02096518 560.0535871 198.79179698 560.85697024 197.5625 561.66015625 C196.96050781 562.05605957 196.35851562 562.45196289 195.73828125 562.85986328 C189.20983338 567.1418649 182.59700874 571.27072552 175.8828125 575.25390625 C173.56909651 576.65530333 171.27756044 578.08072294 168.9921875 579.52734375 C168.28280029 579.97553467 167.57341309 580.42372559 166.8425293 580.88549805 C165.43293093 581.77801479 164.02544595 582.67388036 162.62036133 583.57348633 C159.16670281 585.75789877 155.88404332 587.64772186 152 589 C152 589.66 152 590.32 152 591 C151.21625 591.37125 150.4325 591.7425 149.625 592.125 C141.55141303 595.97930094 141.55141303 595.97930094 134.64379883 601.45019531 C132.70887374 603.27447936 130.83998214 604.17937915 128.4296875 605.296875 C122.15762266 608.33608114 116.44076548 612.08080763 110.6171875 615.890625 C109.81796875 616.40625 109.01875 616.921875 108.1953125 617.453125 C107.12821045 618.15163574 107.12821045 618.15163574 106.03955078 618.86425781 C104.01549262 619.9913728 102.26354038 620.55606879 100 621 C100 621.66 100 622.32 100 623 C99.175 623.37125 98.35 623.7425 97.5 624.125 C93.98574758 626.00763523 91.03269248 628.15882555 87.8828125 630.578125 C84.84102193 632.87524485 81.88538014 634.67055623 78.3125 636 C75.68136031 636.8891283 75.68136031 636.8891283 74 640 C72.07421875 641.10546875 72.07421875 641.10546875 69.6875 642.1875 C63.14746116 645.3090998 57.12067379 649.13380637 51 653 C51.165 654.03125 51.33 655.0625 51.5 656.125 C52.87066743 667.49347692 52.86491513 678.17198327 47.125 688.3125 C43.28528554 693.16860947 38.87193075 697.21072053 34 701 C33.34 701 32.68 701 32 701 C32 701.66 32 702.32 32 703 C19.34518663 708.1063282 8.01361989 707.99262536 -5 704 C-7.55039385 702.83541754 -9.66809206 701.5726821 -12 700 C-12 699.34 -12 698.68 -12 698 C-12.85078125 697.92072266 -12.85078125 697.92072266 -13.71875 697.83984375 C-19.73147662 695.62625433 -24.78633152 686.06228738 -27.5625 680.5 C-30.44368388 672.59955913 -29.31323312 663.27658282 -29 655 C-28.34 655 -27.68 655 -27 655 C-27 654.34 -27 653.68 -27 653 C-27.886875 652.7525 -28.77375 652.505 -29.6875 652.25 C-33.16964025 650.93598481 -35.12644647 649.32621 -38 647 C-40.61827918 645.56116995 -43.29299623 644.26282062 -46 643 C-46 642.34 -46 641.68 -46 641 C-46.721875 640.896875 -47.44375 640.79375 -48.1875 640.6875 C-51.27793421 639.93206053 -53.41743841 638.84468685 -56 637 C-56 636.34 -56 635.68 -56 635 C-56.95132813 634.79375 -57.90265625 634.5875 -58.8828125 634.375 C-64.08575537 632.8817319 -68.35910968 629.90645526 -72.875 627 C-74.73343339 625.82663231 -76.59282335 624.65477843 -78.453125 623.484375 C-79.37931641 622.89978516 -80.30550781 622.31519531 -81.25976562 621.71289062 C-85.34351998 619.16018031 -89.47474975 616.69271353 -93.625 614.25 C-94.32866699 613.83234375 -95.03233398 613.4146875 -95.75732422 612.984375 C-98.48196019 611.38458874 -100.99311023 610.00229659 -104 609 C-104 608.34 -104 607.68 -104 607 C-104.68449219 606.74476563 -105.36898437 606.48953125 -106.07421875 606.2265625 C-109.44961726 604.81150892 -112.59974038 603.12741434 -115.8125 601.375 C-116.7087207 600.88773438 -116.7087207 600.88773438 -117.62304688 600.390625 C-119.08337135 599.59620849 -120.54187491 598.79844624 -122 598 C-122 597.34 -122 596.68 -122 596 C-123.65 596 -125.3 596 -127 596 C-127 595.34 -127 594.68 -127 594 C-127.7425 593.9175 -128.485 593.835 -129.25 593.75 C-132 593 -132 593 -133.8125 591.125 C-136.30167911 588.70694029 -138.57167016 587.61214136 -141.75 586.25 C-143.22726562 585.60804688 -143.22726562 585.60804688 -144.734375 584.953125 C-145.48203125 584.63859375 -146.2296875 584.3240625 -147 584 C-147 583.34 -147 582.68 -147 582 C-149.65228812 580.92474806 -152.28368454 579.90543849 -155 579 C-155 578.34 -155 577.68 -155 577 C-155.88558594 576.72929688 -156.77117187 576.45859375 -157.68359375 576.1796875 C-160.78177849 575.07762414 -163.2600194 573.82424163 -166.0625 572.125 C-167.08472656 571.51914062 -168.10695313 570.91328125 -169.16015625 570.2890625 C-171.28711056 569.02186637 -173.41315655 567.75317095 -175.53857422 566.48339844 C-178.35204547 564.81009472 -181.17534462 563.1543409 -184 561.5 C-184.92047119 560.94715332 -185.84094238 560.39430664 -186.78930664 559.82470703 C-187.66321045 559.31536621 -188.53711426 558.80602539 -189.4375 558.28125 C-190.21996094 557.81783203 -191.00242187 557.35441406 -191.80859375 556.87695312 C-194.42379924 555.83040476 -195.42435927 555.93430882 -198 557 C-198.99 557.763125 -199.98 558.52625 -201 559.3125 C-211.1217296 566.64276312 -222.97721983 567.03395909 -235 566 C-237.53125 564.9765625 -237.53125 564.9765625 -239 564 C-239 563.34 -239 562.68 -239 562 C-239.66 561.95875 -240.32 561.9175 -241 561.875 C-248.78559707 559.60420086 -255.04446171 552.83191622 -259.1875 546.05859375 C-264.95499855 535.22332992 -265.95858677 521.95386272 -262.8359375 510.07421875 C-261.20347088 506.02356559 -258.86543784 502.29369621 -256 499 C-255.34 499 -254.68 499 -254 499 C-253.01 497.02 -253.01 497.02 -252 495 C-251.34 495 -250.68 495 -250 495 C-250 494.34 -250 493.68 -250 493 C-247.73272667 491.82592979 -245.46165376 490.66060261 -243.1875 489.5 C-242.54490234 489.16613281 -241.90230469 488.83226562 -241.24023438 488.48828125 C-238.30452301 486.99760916 -236.33873483 486 -233 486 C-233 448.38 -233 410.76 -233 372 C-235.97 371.34 -238.94 370.68 -242 370 C-244.5234375 368.23046875 -244.5234375 368.23046875 -246.375 366.1875 C-247.02597656 365.47078125 -247.67695313 364.7540625 -248.34765625 364.015625 C-250.19846745 361.75789786 -251.71933571 359.62873197 -253 357 C-253.51304687 355.98292969 -254.02609375 354.96585938 -254.5546875 353.91796875 C-256.40239232 349.57458911 -256.40914766 345.53728306 -256.3125 340.875 C-256.31572266 340.08996094 -256.31894531 339.30492187 -256.32226562 338.49609375 C-256.28265723 334.22558885 -255.96147599 330.89169341 -254 327 C-253.34 327 -252.68 327 -252 327 C-251.938125 326.46375 -251.87625 325.9275 -251.8125 325.375 C-249.82805129 319.57430376 -244.40567061 314.7300268 -239 312 C-237.02 311.67 -235.04 311.34 -233 311 C-233 280.31 -233 249.62 -233 218 C-235.31 217.67 -237.62 217.34 -240 217 C-240.66 216.67 -241.32 216.34 -242 216 C-242 215.34 -242 214.68 -242 214 C-243.4540625 213.814375 -243.4540625 213.814375 -244.9375 213.625 C-251.4767123 211.76424853 -255.85519361 205.32565486 -259.390625 199.84375 C-265.37564517 188.58833894 -265.27460648 176.10276855 -262 164 C-260.875 160.875 -260.875 160.875 -260 159 C-259.34 159 -258.68 159 -258 159 C-257.90976562 158.25878906 -257.81953125 157.51757812 -257.7265625 156.75390625 C-256.16908682 150.85057102 -250.27538346 146.54839073 -245.1875 143.5 C-242 142 -242 142 -239 142 C-239 141.34 -239 140.68 -239 140 C-230.91402016 137.41248645 -221.22237248 136.45594911 -213 139 C-213 139.66 -213 140.32 -213 141 C-211.700625 141.1546875 -211.700625 141.1546875 -210.375 141.3125 C-206.1428644 142.1746017 -202.37409793 143.39688575 -199.5 146.75 C-197.98914281 148.27241398 -197.98914281 148.27241398 -195.375 148.0625 C-191.55082511 146.85859309 -188.98614214 145.08729849 -185.73046875 142.796875 C-182.5530027 140.70583869 -179.24573486 138.9393125 -175.875 137.1875 C-170.55871025 134.41293757 -165.37324474 131.49190247 -160.25 128.375 C-155.31764813 125.37641134 -150.34927173 122.51524821 -145.26171875 119.78515625 C-137.92983143 115.77237481 -130.7049255 111.56498322 -123.45458984 107.40722656 C-120.30493726 105.60151764 -117.15266396 103.80044608 -114 102 C-112.9171875 101.38125 -111.834375 100.7625 -110.71875 100.125 C-101.96875 95.125 -101.96875 95.125 -99.25927734 93.5769043 C-97.42606899 92.52924081 -95.59305972 91.48122887 -93.76025391 90.43286133 C-89.82125586 88.18021777 -85.88133912 85.9296049 -81.9296875 83.69921875 C-75.66363085 80.15655116 -69.51542456 76.49999022 -63.5 72.54296875 C-60.74123944 70.84029622 -57.90523119 69.43833928 -55 68 C-52.35797083 66.5717534 -49.74085218 65.10053749 -47.125 63.625 C-46.41899658 63.22869385 -45.71299316 62.8323877 -44.9855957 62.42407227 C-41.31963826 60.35469622 -37.71862003 58.23239924 -34.1875 55.9375 C-31 54 -31 54 -28 54 C-28.16113281 53.31292969 -28.32226562 52.62585938 -28.48828125 51.91796875 C-30.7571173 38.98040745 -28.94340666 26.25210727 -21.86328125 15.23046875 C-17.36795153 9.25019528 -10.61636473 5.29108582 -4 2 C-2.68 2 -1.36 2 0 2 C0 1.34 0 0.68 0 0 Z " fill="#6889EB" transform="translate(505,168)"/>
<path d="M0 0 C2.5703125 1.375 2.5703125 1.375 5.125 3 C7.80872417 4.69670099 9.97770778 5.99256926 13 7 C13 7.66 13 8.32 13 9 C13.825 9.226875 14.65 9.45375 15.5 9.6875 C18.34547895 10.7545546 20.26803929 11.73549343 22.75 13.375 C27.23092677 16.30149675 31.99181757 18.16298226 37 20 C37 20.66 37 21.32 37 22 C38.32 22.33 39.64 22.66 41 23 C40.99333817 23.57755035 40.98667633 24.15510071 40.97981262 24.75015259 C40.91227463 30.88464658 40.86772156 37.01903146 40.83520508 43.15380859 C40.82032571 45.42859196 40.80001585 47.70334775 40.77368164 49.97802734 C40.64116704 61.73804818 40.7388009 73.34583116 42.26171875 85.0234375 C42.37030716 85.88707916 42.47889557 86.75072083 42.59077454 87.64053345 C43.50866578 93.85443584 45.51673942 99.25360896 48 105 C48.51666904 106.33433896 49.02629885 107.67143469 49.52734375 109.01171875 C52.06538732 115.62750545 54.57386964 121.40224689 59 127 C59 127.66 59 128.32 59 129 C59.66 129 60.32 129 61 129 C61.37125 129.66 61.7425 130.32 62.125 131 C65.19958869 135.9193419 69.3970096 141.13233653 75 143 C75.76054687 143.76699219 76.52109375 144.53398438 77.3046875 145.32421875 C89.09119222 157.02531401 108.5944037 162.59555738 123.9609375 167.9296875 C126.57001854 168.84856694 129.12790234 169.82829168 131.6875 170.875 C142.83654616 175.38990299 154.04507521 179.92807322 165.84765625 182.39453125 C168 183 168 183 170 185 C172.37466964 185.78016724 174.71444963 186.48059545 177.125 187.125 C178.11306641 187.39763672 178.11306641 187.39763672 179.12109375 187.67578125 C180.74576456 188.12315437 182.37267893 188.56236535 184 189 C184 189.66 184 190.32 184 191 C184.65226563 191.12117187 185.30453125 191.24234375 185.9765625 191.3671875 C190.78646342 192.28943989 195.39025465 193.30167277 200 195 C200 195.66 200 196.32 200 197 C200.87398437 197.14695312 200.87398437 197.14695312 201.765625 197.296875 C208.75912364 198.57241878 215.29833011 200.65845269 222 203 C223.74900794 203.58630111 225.49890352 204.16996647 227.25 204.75 C228.4875 205.1625 229.725 205.575 231 206 C231 206.66 231 207.32 231 208 C231.58007812 208.02578125 232.16015625 208.0515625 232.7578125 208.078125 C238.36380672 208.48516088 241.36174811 209.67255843 246 213 C248.31852648 213.85295385 250.59132314 214.42191755 253 215 C253 215.66 253 216.32 253 217 C253.86431641 217.40025391 253.86431641 217.40025391 254.74609375 217.80859375 C260.49559769 220.84775961 264.93368639 224.66935249 267 230.9375 C267.35989347 232.28485117 267.70336312 233.63732431 268 235 C268.66 235 269.32 235 270 235 C272.65491402 246.0365434 272.45780691 257.75084775 266.65234375 267.640625 C264.61421072 270.55086696 262.75515933 272.75237002 260 275 C259.4225 275.515625 258.845 276.03125 258.25 276.5625 C251.06895018 281.15039294 244.48143548 282.68293699 236 283 C236 283.66 236 284.32 236 285 C227.82195978 286.63560804 219.33999734 286 211 286 C211 262.24 211 238.48 211 214 C207.37 213.34 203.74 212.68 200 212 C196.50390625 210.8515625 196.50390625 210.8515625 193.5625 209.625 C187.45035648 207.15522498 181.27262595 205.02306314 175 203 C175 202.34 175 201.68 175 201 C165.94652446 199.70664635 159.58667096 203.80595434 151.87255859 207.99121094 C149.40131335 209.32252584 146.89233931 210.57096806 144.375 211.8125 C141.73842198 213.12635033 139.11615665 214.45770459 136.5 215.8125 C134 217 134 217 132 217 C131.67 217.99 131.34 218.98 131 220 C130.01193359 220.08040527 129.02386719 220.16081055 128.00585938 220.24365234 C124.30769381 220.54637325 120.61030821 220.85786021 116.91308594 221.171875 C115.31888167 221.30606945 113.72448066 221.43794904 112.12988281 221.56738281 C109.82560339 221.75483984 107.52218181 221.95086764 105.21875 222.1484375 C104.51633179 222.20373627 103.81391357 222.25903503 103.09020996 222.31600952 C98.21745008 222.7452586 93.73483908 223.77542452 89 225 C86.29486913 225.1922428 83.64365563 225.31700228 80.9375 225.375 C70.3160819 225.75198121 59.84284967 227.19990385 49.32397461 228.62841797 C47.38470093 228.89162842 47.38470093 228.89162842 45.40625 229.16015625 C44.24416016 229.32136963 43.08207031 229.48258301 41.88476562 229.64868164 C39 230 39 230 36 230 C36.31030164 234.29182853 36.62364555 238.58342994 36.9375 242.875 C37.06801758 244.68097656 37.06801758 244.68097656 37.20117188 246.5234375 C37.7028299 253.36085057 38.26870706 260.18312934 39 267 C36 269 36 269 32 269 C32 269.66 32 270.32 32 271 C31.1325415 271.31457153 31.1325415 271.31457153 30.24755859 271.63549805 C21.83062371 274.82901636 14.19176591 279.19779183 6.39453125 283.66210938 C5.36972656 284.23380859 4.34492188 284.80550781 3.2890625 285.39453125 C1.90775146 286.18114136 1.90775146 286.18114136 0.49853516 286.98364258 C-2 288 -2 288 -4.17431641 287.8034668 C-6 287 -6 287 -8.5 284.75 C-13.01890151 280.94671506 -13.01890151 280.94671506 -24 277 C-24 239.71 -24 202.42 -24 164 C-20.04 162.02 -16.08 160.04 -12 158 C-3.85835084 149.30070364 -0.44277161 142.81022206 -0.7734375 130.90625 C-1.22730047 125.08428367 -2.29454807 120.63181491 -6 116 C-6.309375 114.96875 -6.61875 113.9375 -6.9375 112.875 C-7.67487664 109.92440024 -7.67487664 109.92440024 -9.81640625 108.98046875 C-10.53699219 108.65691406 -11.25757813 108.33335937 -12 108 C-14.0189207 106.73423136 -16.009611 105.43117401 -18 104.12109375 C-20.22871166 102.75667016 -20.22871166 102.75667016 -24 102 C-24 71.31 -24 40.62 -24 9 C-19.05 7.515 -19.05 7.515 -14 6 C-11.10333488 3.74913357 -11.10333488 3.74913357 -8.375 1.3046875 C-5.47203165 -1.44983361 -3.70781951 -1.03174108 0 0 Z " fill="#FCFDFE" transform="translate(314,377)"/>
<path d="M0 0 C2.42421228 1.66664594 4.70279678 3.53723743 7 5.375 C11.29 7.025 15.58 8.675 20 10.375 C20 44.695 20 79.015 20 114.375 C17.03 115.695 14.06 117.015 11 118.375 C3.95152719 123.30893096 0.69833343 129.27999972 -2 137.375 C-2.95366692 149.25675176 -1.56441825 158.48993097 6.125 167.8125 C10.72617028 173.08214219 13.59806628 173.41422651 21 176.375 C21 210.365 21 244.355 21 279.375 C18.03 280.035 15.06 280.695 12 281.375 C9.25106719 282.67603276 9.25106719 282.67603276 7.0625 284.3125 C5.96615234 285.06853516 5.96615234 285.06853516 4.84765625 285.83984375 C2.75987924 287.42590529 2.75987924 287.42590529 1 290.375 C-2.66172475 289.74821829 -5.8818995 288.73048154 -9.3125 287.3125 C-10.19550781 286.95027344 -11.07851563 286.58804687 -11.98828125 286.21484375 C-12.98408203 285.79912109 -12.98408203 285.79912109 -14 285.375 C-14 284.715 -14 284.055 -14 283.375 C-14.65484375 283.2925 -15.3096875 283.21 -15.984375 283.125 C-20.05766033 282.11195494 -23.53065012 280.28819077 -27.25 278.375 C-27.9821875 278.00632812 -28.714375 277.63765625 -29.46875 277.2578125 C-34.84527726 274.52972274 -34.84527726 274.52972274 -36 273.375 C-36.05179977 270.51795483 -36.04185251 267.68397323 -35.9921875 264.828125 C-35.97169953 263.02491384 -35.95229113 261.22169016 -35.93383789 259.41845703 C-35.91814255 257.99802094 -35.91814255 257.99802094 -35.90213013 256.54888916 C-35.56897388 220.64371511 -39.97867922 188.12860304 -65.9375 161.125 C-74.20664775 153.08171668 -83.71574269 148.31963581 -94 143.375 C-94 142.715 -94 142.055 -94 141.375 C-94.680625 141.271875 -95.36125 141.16875 -96.0625 141.0625 C-99.60604903 140.23315874 -102.68011124 138.863226 -106 137.375 C-111.26112973 135.03672012 -116.53411134 133.15044468 -122 131.375 C-124.68876763 130.4829618 -127.37556395 129.58503756 -130.0625 128.6875 C-131.38668737 128.24599961 -132.71090369 127.80458605 -134.03515625 127.36328125 C-135.01355469 127.03714844 -135.99195313 126.71101563 -137 126.375 C-137 125.715 -137 125.055 -137 124.375 C-137.80824219 124.25382812 -138.61648438 124.13265625 -139.44921875 124.0078125 C-140.51785156 123.84023438 -141.58648438 123.67265625 -142.6875 123.5 C-143.74324219 123.33757812 -144.79898438 123.17515625 -145.88671875 123.0078125 C-148.79794914 122.41606931 -151.28955607 121.5718194 -154 120.375 C-154 119.715 -154 119.055 -154 118.375 C-154.6703125 118.24996094 -155.340625 118.12492187 -156.03125 117.99609375 C-159.55331505 117.25924067 -163.02411588 116.36325528 -166.5 115.4375 C-167.15097656 115.26798828 -167.80195312 115.09847656 -168.47265625 114.92382812 C-172.09498421 113.96153292 -175.55491625 112.85241092 -179 111.375 C-179 110.715 -179 110.055 -179 109.375 C-179.57830566 109.20556885 -180.15661133 109.0361377 -180.75244141 108.86157227 C-187.67251649 106.81231774 -194.52814364 104.59337489 -201.375 102.3125 C-202.44105469 101.96123047 -203.50710938 101.60996094 -204.60546875 101.24804688 C-205.63027344 100.90708984 -206.65507812 100.56613281 -207.7109375 100.21484375 C-209.09224854 99.75646118 -209.09224854 99.75646118 -210.50146484 99.28881836 C-212.7747839 98.45737091 -214.84329391 97.46410545 -217 96.375 C-218.62825746 95.90978358 -220.2572037 95.44674771 -221.890625 95 C-236.71704031 90.60698806 -253.7939153 85.16005326 -262.75390625 71.75 C-267.82692006 61.34381783 -267.5032075 47.60410948 -264.75 36.4765625 C-261.48589153 27.33025855 -255.17235692 21.70962092 -246.5625 17.625 C-234.39384281 12.45249177 -223.33971897 12.375 -210 12.375 C-210 35.805 -210 59.235 -210 83.375 C-207.03 84.365 -204.06 85.355 -201 86.375 C-198.98966263 87.18307679 -196.98803719 88.01351722 -195 88.875 C-190.06055633 90.96500603 -185.11825811 92.78111305 -180 94.375 C-178.80375 94.7875 -177.6075 95.2 -176.375 95.625 C-167.79719666 97.53117852 -161.35170223 93.34028821 -154 89.375 C-153.22398437 88.95863281 -152.44796875 88.54226563 -151.6484375 88.11328125 C-148.42691652 86.35023068 -145.26729221 84.5443587 -142.1640625 82.578125 C-135.36146513 78.34617497 -129.94809999 76.14119315 -122 75.375 C-121.24509277 75.29975098 -120.49018555 75.22450195 -119.71240234 75.14697266 C-115.20597385 74.69987545 -110.69759087 74.27940163 -106.1875 73.87109375 C-100.82910645 73.37455186 -95.51024025 72.68015894 -90.1796875 71.9453125 C-73.46108963 69.64765412 -56.87428258 67.88956803 -40 67.375 C-40.31279526 48.76225137 -40.31279526 48.76225137 -43.37890625 30.4609375 C-44.06858743 27.03421968 -44.10099227 23.86142894 -44 20.375 C-41.69 19.715 -39.38 19.055 -37 18.375 C-37 17.715 -37 17.055 -37 16.375 C-36.39671875 16.10945313 -35.7934375 15.84390625 -35.171875 15.5703125 C-34.37265625 15.21710938 -33.5734375 14.86390625 -32.75 14.5 C-31.96109375 14.15195312 -31.1721875 13.80390625 -30.359375 13.4453125 C-28.84694933 12.75921211 -27.35375628 12.02794319 -25.890625 11.2421875 C-24 10.375 -24 10.375 -21 10.375 C-21 9.715 -21 9.055 -21 8.375 C-20.360625 8.148125 -19.72125 7.92125 -19.0625 7.6875 C-16.4090317 6.5502993 -14.00731231 5.29399645 -11.5 3.875 C-2.92874985 -0.91523433 -2.92874985 -0.91523433 0 0 Z " fill="#FCFDFE" transform="translate(716,370.625)"/>
<path d="M0 0 C2.62645746 1.09476638 5.05203938 2.40443357 7.52734375 3.80859375 C10.98655814 5.76673041 14.36665084 7.47236247 18.08984375 8.87109375 C18.08984375 9.53109375 18.08984375 10.19109375 18.08984375 10.87109375 C18.62609375 10.95359375 19.16234375 11.03609375 19.71484375 11.12109375 C22.91153177 12.13057418 25.30981978 14.01774444 28.08984375 15.87109375 C30.3158699 16.64049056 30.3158699 16.64049056 32.08984375 16.87109375 C32.08984375 17.53109375 32.08984375 18.19109375 32.08984375 18.87109375 C32.74984375 19.11859375 33.40984375 19.36609375 34.08984375 19.62109375 C44.16612235 23.81954317 53.53313989 29.39333939 62.609375 35.41796875 C64.84453187 36.72738349 66.56132015 37.42315017 69.08984375 37.87109375 C69.08984375 38.53109375 69.08984375 39.19109375 69.08984375 39.87109375 C69.95609375 40.12503906 70.82234375 40.37898438 71.71484375 40.640625 C75.22463436 41.92023616 77.96095649 43.52721159 81.08984375 45.55859375 C85.6405624 48.45546326 90.22862096 51.01101349 95.08984375 53.37109375 C100.99621861 56.24552951 106.50436647 59.52508318 112.05859375 63.0234375 C115.54152253 65.14640827 119.10608451 66.96052747 122.7734375 68.73828125 C128.83731467 71.70375238 134.56536683 75.1570913 140.27734375 78.74609375 C147.00292131 82.92771762 153.95087383 86.44610068 161.08984375 89.87109375 C161.13238731 91.87064121 161.13065158 93.87151011 161.08984375 95.87109375 C160.75984375 96.20109375 160.42984375 96.53109375 160.08984375 96.87109375 C160.00314943 98.35981235 159.98280881 99.85253875 159.9921875 101.34375 C159.99541016 102.24287109 159.99863281 103.14199219 160.00195312 104.06835938 C160.01033203 105.01388672 160.01871094 105.95941406 160.02734375 106.93359375 C160.03411133 108.35768555 160.03411133 108.35768555 160.04101562 109.81054688 C160.05284265 112.1641244 160.0693235 114.51757852 160.08984375 116.87109375 C157.634142 118.20948108 155.17554459 119.54195607 152.71484375 120.87109375 C151.66683594 121.4434375 151.66683594 121.4434375 150.59765625 122.02734375 C145.31640625 124.87109375 145.31640625 124.87109375 143.08984375 124.87109375 C143.08984375 125.53109375 143.08984375 126.19109375 143.08984375 126.87109375 C139.2307118 128.83451176 135.40346463 130.77674193 131.40234375 132.43359375 C128.10949607 133.77040135 128.10949607 133.77040135 125.33984375 135.55859375 C123.08984375 136.87109375 123.08984375 136.87109375 120.08984375 136.87109375 C119.79851562 136.04867187 119.5071875 135.22625 119.20703125 134.37890625 C116.49031606 126.98055608 113.35787136 120.47762297 109.08984375 113.87109375 C108.55488281 112.97648437 108.01992188 112.081875 107.46875 111.16015625 C96.66405222 93.34363382 81.32908167 83.02087683 63.08984375 73.87109375 C62.09597656 73.31550781 61.10210938 72.75992188 60.078125 72.1875 C53.73538942 68.71759963 47.61831285 66.76423971 40.57861328 65.33886719 C36.37392082 64.47902435 32.45930439 63.31622102 28.41796875 61.859375 C21.78647657 59.59730863 15.29340009 58.81188071 8.33984375 58.18359375 C7.19257812 58.06693359 6.0453125 57.95027344 4.86328125 57.83007812 C-4.04787639 56.9518627 -12.97220745 56.3855133 -21.91015625 55.87109375 C-21.93542687 49.48072144 -21.95298942 43.09036192 -21.96508789 36.69995117 C-21.97012933 34.52416502 -21.97696232 32.34838228 -21.9855957 30.17260742 C-21.99766963 27.05256308 -22.0033863 23.93256337 -22.0078125 20.8125 C-22.01297379 19.83334122 -22.01813507 18.85418243 -22.02345276 17.84535217 C-22.02352829 16.94449387 -22.02360382 16.04363556 -22.02368164 15.11547852 C-22.02590225 14.31827896 -22.02812286 13.52107941 -22.03041077 12.69972229 C-21.91015625 10.87109375 -21.91015625 10.87109375 -20.91015625 9.87109375 C-18.91057261 9.83028592 -16.90970371 9.82855019 -14.91015625 9.87109375 C-14.91015625 9.21109375 -14.91015625 8.55109375 -14.91015625 7.87109375 C-14.306875 7.54496094 -13.70359375 7.21882812 -13.08203125 6.8828125 C-12.2828125 6.44582031 -11.48359375 6.00882813 -10.66015625 5.55859375 C-9.87125 5.12933594 -9.08234375 4.70007813 -8.26953125 4.2578125 C-5.87335014 2.93921363 -5.87335014 2.93921363 -3.86328125 1.140625 C-1.91015625 -0.12890625 -1.91015625 -0.12890625 0 0 Z " fill="#FBFDFE" transform="translate(545.91015625,237.12890625)"/>
<path d="M0 0 C3.11564835 1.13965775 5.55258863 3.17095343 8.20385742 5.12866211 C11.78375102 7.32740895 11.78375102 7.32740895 19.91088867 9.69897461 C19.91088867 24.87897461 19.91088867 40.05897461 19.91088867 55.69897461 C15.86838867 55.80209961 11.82588867 55.90522461 7.66088867 56.01147461 C-6.98162987 56.49241385 -21.34168264 57.73952652 -35.41333008 62.00366211 C-40.87081006 63.42181019 -46.50093966 64.00555185 -52.08911133 64.69897461 C-52.08911133 65.35897461 -52.08911133 66.01897461 -52.08911133 66.69897461 C-53.51223633 67.07022461 -53.51223633 67.07022461 -54.96411133 67.44897461 C-80.13639057 74.74893559 -101.57770778 91.33900896 -114.65161133 114.01147461 C-121.90758713 126.91674639 -121.90758713 126.91674639 -125.71411133 141.01147461 C-125.83786133 142.22834961 -125.96161133 143.44522461 -126.08911133 144.69897461 C-127.40911133 144.69897461 -128.72911133 144.69897461 -130.08911133 144.69897461 C-130.08911133 144.03897461 -130.08911133 143.37897461 -130.08911133 142.69897461 C-130.65114258 142.58553711 -131.21317383 142.47209961 -131.79223633 142.35522461 C-134.4007292 141.60994093 -136.47008014 140.52327776 -138.83911133 139.19897461 C-139.79688477 138.6665918 -140.7546582 138.13420898 -141.74145508 137.58569336 C-144.212976 136.19275916 -146.68433807 134.79954551 -149.15551758 133.40600586 C-149.85773438 133.01026367 -150.55995117 132.61452148 -151.28344727 132.20678711 C-152.66671316 131.42618893 -154.0489246 130.6437184 -155.42993164 129.85913086 C-159.2642506 127.68883373 -163.1281434 125.63340081 -167.08911133 123.69897461 C-166.84547852 122.72057617 -166.84547852 122.72057617 -166.59692383 121.72241211 C-165.95710718 117.91304223 -165.9439217 114.17346307 -165.96411133 110.32397461 C-165.96024414 109.59436523 -165.95637695 108.86475586 -165.95239258 108.11303711 C-165.96055598 103.54153061 -166.33942843 99.20897174 -167.08911133 94.69897461 C-166.25379883 94.24458008 -166.25379883 94.24458008 -165.40161133 93.78100586 C-161.60668615 91.69764322 -157.88532618 89.59212235 -154.27661133 87.19897461 C-150.01424312 84.46624661 -145.44375274 82.71009259 -140.72583008 80.90991211 C-138.19487357 79.7475469 -136.9114914 78.74359616 -135.08911133 76.69897461 C-133.44354566 75.66461905 -131.77205052 74.67133948 -130.08911133 73.69897461 C-128.79688527 72.86650898 -127.50526396 72.03310416 -126.21411133 71.19897461 C-121.95783055 68.53277608 -117.67257596 66.2428619 -112.71411133 65.19897461 C-112.17786133 65.03397461 -111.64161133 64.86897461 -111.08911133 64.69897461 C-110.59411133 63.21397461 -110.59411133 63.21397461 -110.08911133 61.69897461 C-107.75317383 60.33959961 -107.75317383 60.33959961 -104.71411133 58.94897461 C-100.57518217 56.96715794 -96.6777416 54.90083578 -92.83911133 52.38647461 C-86.35351386 48.14152816 -79.59372088 44.41674594 -72.80883789 40.67749023 C-71.29508636 39.81617335 -69.8244407 38.88001884 -68.36254883 37.93334961 C-66.08911133 36.69897461 -66.08911133 36.69897461 -62.08911133 36.69897461 C-62.08911133 36.03897461 -62.08911133 35.37897461 -62.08911133 34.69897461 C-58.42896452 32.56388897 -54.78579177 30.52989375 -50.96411133 28.69897461 C-48.52744968 27.50398346 -46.73370331 26.41464819 -44.58911133 24.69897461 C-40.61732248 21.52154353 -36.25976126 18.69897461 -31.08911133 18.69897461 C-30.75911133 17.70897461 -30.42911133 16.71897461 -30.08911133 15.69897461 C-27.92895508 14.44506836 -27.92895508 14.44506836 -25.02661133 13.13647461 C-18.83597896 10.20837239 -13.19174938 6.69969238 -7.52246094 2.86279297 C-2.57746733 -0.37139385 -2.57746733 -0.37139385 0 0 Z " fill="#FBFDFD" transform="translate(486.089111328125,237.301025390625)"/>
<path d="M0 0 C0.66 3.96 1.32 7.92 2 12 C2.66 12 3.32 12 4 12 C4.29390625 12.93005859 4.29390625 12.93005859 4.59375 13.87890625 C8.29889646 24.85061151 13.53971588 35.63162578 20.96875 44.58203125 C22 46 22 46 22 48 C22.57621094 48.23332031 23.15242188 48.46664062 23.74609375 48.70703125 C26.52898106 50.3034536 28.03140239 52.20842198 30.0625 54.6875 C34.75926457 60.04970403 39.83965981 63.50107566 46 67 C46.70898438 67.4228125 47.41796875 67.845625 48.1484375 68.28125 C50.7380077 69.81095391 53.13850212 71.04616737 56 72 C56.33 72.66 56.66 73.32 57 74 C58.75489193 74.88490975 58.75489193 74.88490975 60.90234375 75.62109375 C61.70583252 75.91540283 62.50932129 76.20971191 63.3371582 76.51293945 C64.195271 76.81804443 65.05338379 77.12314941 65.9375 77.4375 C66.8039917 77.75098389 67.6704834 78.06446777 68.56323242 78.38745117 C73.63143778 80.20530649 78.70700401 81.94435947 83.89453125 83.39453125 C85.5348109 83.86622577 87.15403611 84.4113396 88.76171875 84.984375 C92.46681806 86.14640856 96.17686837 86.81809779 100 87.4375 C105.21976479 88.30179179 110.30800271 89.31220731 115.4375 90.625 C126.38476493 93.08781225 137.85033965 92.71263762 149 93 C149 106.2 149 119.4 149 133 C143.06 135.475 143.06 135.475 137 138 C134.65119356 139.98180543 132.31280476 141.97629583 130 144 C126.36646643 143.73936679 123.63480097 141.67046282 120.625 139.75 C114.5098651 135.89431586 108.29948509 132.21727354 102.0625 128.5625 C94.54459983 124.14868278 87.1425104 119.61941314 79.875 114.8046875 C76.99431347 112.99643046 74.06557411 111.46892093 71 110 C71 109.34 71 108.68 71 108 C69.68 108 68.36 108 67 108 C67 107.34 67 106.68 67 106 C66.13375 105.814375 66.13375 105.814375 65.25 105.625 C62.97664233 104.99351176 61.0746471 104.11141809 59 103 C59 102.34 59 101.68 59 101 C57.7625 100.62875 57.7625 100.62875 56.5 100.25 C52.47626529 98.81295189 48.78020976 96.97645485 45 95 C45 94.34 45 93.68 45 93 C44.46375 92.896875 43.9275 92.79375 43.375 92.6875 C40.37497956 91.81907303 37.7620465 90.44379704 35 89 C35 88.34 35 87.68 35 87 C33.4221875 86.5978125 33.4221875 86.5978125 31.8125 86.1875 C28.40927088 85.12747781 25.86841082 84.08611696 23 82 C23 81.34 23 80.68 23 80 C22.45859375 79.88785156 21.9171875 79.77570313 21.359375 79.66015625 C18.49971779 78.86002037 15.94256292 77.6876185 13.25 76.4375 C12.26515625 75.98246094 11.2803125 75.52742187 10.265625 75.05859375 C9.14414062 74.53458984 9.14414062 74.53458984 8 74 C8 73.34 8 72.68 8 72 C7.2575 71.71125 6.515 71.4225 5.75 71.125 C3.43260203 70.17697356 1.22082885 69.15154089 -1 68 C-1 67.34 -1 66.68 -1 66 C-1.94875 65.690625 -2.8975 65.38125 -3.875 65.0625 C-7 64 -7 64 -9 63 C-9 62.34 -9 61.68 -9 61 C-10.32 61 -11.64 61 -13 61 C-13 60.34 -13 59.68 -13 59 C-14.051875 58.731875 -15.10375 58.46375 -16.1875 58.1875 C-19.59072912 57.12747781 -22.13158918 56.08611696 -25 54 C-25 53.34 -25 52.68 -25 52 C-26.32 52 -27.64 52 -29 52 C-29 51.34 -29 50.68 -29 50 C-29.53625 49.896875 -30.0725 49.79375 -30.625 49.6875 C-33.62502044 48.81907303 -36.2379535 47.44379704 -39 46 C-38.83628906 45.24460937 -38.67257812 44.48921875 -38.50390625 43.7109375 C-37.81922331 38.66869881 -37.89488179 33.70640205 -37.9375 28.625 C-37.94201172 27.60277344 -37.94652344 26.58054687 -37.95117188 25.52734375 C-37.962897 23.01816806 -37.97930824 20.5091151 -38 18 C-12.29032258 5 -12.29032258 5 -9 5 C-9 4.34 -9 3.68 -9 3 C-3.375 0 -3.375 0 0 0 Z " fill="#FCFBFD" transform="translate(358,662)"/>
<path d="M0 0 C2.76276177 0.52268466 5.3260876 1.10869587 8 2 C8 2.66 8 3.32 8 4 C8.78117187 4.16822266 8.78117187 4.16822266 9.578125 4.33984375 C12.72857803 5.19859627 15.70829519 6.37623512 18.75 7.5625 C20.50570312 8.24505859 20.50570312 8.24505859 22.296875 8.94140625 C23.18890625 9.29074219 24.0809375 9.64007812 25 10 C25 10.66 25 11.32 25 12 C26.98 12.33 28.96 12.66 31 13 C30.98428955 13.9446814 30.98428955 13.9446814 30.96826172 14.90844727 C30.9263977 17.79309006 30.90057799 20.67766866 30.875 23.5625 C30.84986328 25.0484668 30.84986328 25.0484668 30.82421875 26.56445312 C30.78725641 32.12728491 31.12917449 36.74843075 33 42 C32.06800781 42.556875 31.13601563 43.11375 30.17578125 43.6875 C22.92837992 48.02348657 15.70469064 52.39335695 8.51953125 56.83203125 C5.8764662 58.46331595 3.22668698 60.08326918 0.57421875 61.69921875 C-0.19752686 62.16948486 -0.96927246 62.63975098 -1.7644043 63.12426758 C-3.32688124 64.07623279 -4.88954136 65.02789741 -6.45239258 65.97924805 C-11.70463819 69.18472483 -16.89298617 72.46960662 -22.03125 75.85546875 C-24 77 -24 77 -26 77 C-26 77.66 -26 78.32 -26 79 C-26.886875 79.433125 -27.77375 79.86625 -28.6875 80.3125 C-31.9510585 81.92003881 -31.9510585 81.92003881 -34.75 83.6875 C-37 85 -37 85 -39 85 C-39 85.66 -39 86.32 -39 87 C-40.98 87.66 -42.96 88.32 -45 89 C-45 89.66 -45 90.32 -45 91 C-45.99 91 -46.98 91 -48 91 C-48 91.66 -48 92.32 -48 93 C-51.465 93.99 -51.465 93.99 -55 95 C-55 95.66 -55 96.32 -55 97 C-55.79019531 97.43828125 -56.58039063 97.8765625 -57.39453125 98.328125 C-66.98280478 103.71947423 -76.27269227 109.51951979 -85.54443359 115.43554688 C-90.30003696 118.46536457 -95.07097636 121.47100846 -99.84301758 124.47485352 C-103.9915473 127.08883628 -108.12556993 129.7227117 -112.2421875 132.38671875 C-113.53092773 133.21526367 -113.53092773 133.21526367 -114.84570312 134.06054688 C-116.49171253 135.1193313 -118.13387 136.18413619 -119.77148438 137.25585938 C-127.01659685 141.89951776 -127.01659685 141.89951776 -131 142 C-134.3125 140.1875 -134.3125 140.1875 -137 138 C-137 137.34 -137 136.68 -137 136 C-137.78375 135.855625 -138.5675 135.71125 -139.375 135.5625 C-142 135 -142 135 -144 134 C-144 133.34 -144 132.68 -144 132 C-145.98 132 -147.96 132 -150 132 C-150 119.13 -150 106.26 -150 93 C-143.379375 92.566875 -143.379375 92.566875 -136.625 92.125 C-113.70329666 90.65503411 -113.70329666 90.65503411 -91.3046875 85.9296875 C-88.56397185 85.15865875 -85.92781333 84.58741701 -83.125 84.125 C-75.50886435 82.7122261 -68.23570396 79.70163648 -61 77 C-60.02675781 76.649375 -59.05351563 76.29875 -58.05078125 75.9375 C-55.82912979 75.18119732 -55.82912979 75.18119732 -55 73 C-53.60682064 72.28554905 -52.18378183 71.62901396 -50.75 71 C-40.71742768 66.12006497 -32.27066081 58.72809267 -24.70703125 50.6171875 C-23 49 -23 49 -21 49 C-20.9175 48.4225 -20.835 47.845 -20.75 47.25 C-20 45 -20 45 -18.125 43.1875 C-15.91752961 40.91510401 -15.02417232 38.86527937 -13.83447266 35.96899414 C-13.00152708 34.00360325 -12.08780509 32.10408143 -11.1328125 30.1953125 C-6.25954134 20.36088757 -2.76376466 10.61657676 0 0 Z " fill="#FDFBFD" transform="translate(675,663)"/>
<path d="M0 0 C0 24.42 0 48.84 0 74 C-6.27082203 74 -11.84329762 73.79705936 -17.9375 72.75 C-18.72310303 72.61577637 -19.50870605 72.48155273 -20.31811523 72.34326172 C-26.24387822 71.2662958 -31.60262571 69.72299964 -37 67 C-38.18142578 66.42765625 -38.18142578 66.42765625 -39.38671875 65.84375 C-44.47220503 63.22115212 -48.29070756 60.37506288 -52 56 C-52 55.01 -52 54.02 -52 53 C-52.66 53 -53.32 53 -54 53 C-55.01840461 50.36002853 -56.01455511 47.71476721 -57 45.0625 C-57.28617187 44.32708984 -57.57234375 43.59167969 -57.8671875 42.83398438 C-59.88345207 37.33726311 -60.27887127 32.85048688 -60 27 C-56.71275599 25.24160119 -53.41942984 23.49489343 -50.125 21.75 C-49.2071875 21.25886719 -48.289375 20.76773438 -47.34375 20.26171875 C-31.7015625 12 -31.7015625 12 -27 12 C-27 11.34 -27 10.68 -27 10 C-25.989375 9.5875 -24.97875 9.175 -23.9375 8.75 C-21.2552975 7.61522202 -18.79966587 6.32525673 -16.3125 4.8125 C-13 3 -13 3 -9 3 C-9 2.34 -9 1.68 -9 1 C-6 0 -6 0 0 0 Z " fill="#FCFCFE" transform="translate(506,588)"/>
<path d="M0 0 C11.25 0 11.25 0 15.5703125 1.09375 C16.48554687 1.31933594 17.40078125 1.54492188 18.34375 1.77734375 C19.2615625 2.01582031 20.179375 2.25429688 21.125 2.5 C22.08148437 2.73847656 23.03796875 2.97695313 24.0234375 3.22265625 C26.35179246 3.80474499 28.67691998 4.39726878 31 5 C31 5.66 31 6.32 31 7 C31.66 7.185625 32.32 7.37125 33 7.5625 C38.86039554 10.3706062 44.26584095 15.01902707 47 21 C47 21.66 47 22.32 47 23 C47.66 23 48.32 23 49 23 C52.07419994 31.34425697 53.15213207 39.1654735 53 48 C51.06966852 49.01596394 49.13933361 50.03192137 47.20898438 51.04785156 C45.50840721 51.94292684 43.80788765 52.83811157 42.10742188 53.73339844 C37.70444474 56.05135077 33.30064211 58.36769681 28.89453125 60.6796875 C27.26299007 61.53639975 25.63147904 62.39316943 24 63.25 C23.20803223 63.66548096 22.41606445 64.08096191 21.60009766 64.5090332 C16.39955532 67.24377288 11.24143191 70.04458192 6.12890625 72.94140625 C4 74 4 74 0 75 C0 50.25 0 25.5 0 0 Z " fill="#FCFDFE" transform="translate(525,383)"/>
<path d="M0 0 C5.46202735 3.68369286 9.17016265 6.62374514 11.6875 12.8125 C12.8562174 19.28005634 13.03425715 26.71087747 10.3984375 32.78125 C6.87644411 37.60589848 2.52244692 41.28235658 -3.3125 42.8125 C-9.85743643 43.63540136 -16.6203082 43.43917072 -22.3125 39.8125 C-27.37247466 35.19252313 -30.99595141 30.6157382 -31.578125 23.62109375 C-31.57296875 22.50863281 -31.5678125 21.39617187 -31.5625 20.25 C-31.56765625 19.13496094 -31.5728125 18.01992187 -31.578125 16.87109375 C-31.32417605 13.94694628 -30.83382851 12.28164032 -29.3125 9.8125 C-28.6525 9.8125 -27.9925 9.8125 -27.3125 9.8125 C-27.126875 9.07 -26.94125 8.3275 -26.75 7.5625 C-24.75836889 3.7524231 -22.08160592 2.63343936 -18.3125 0.8125 C-17.68859375 0.4515625 -17.0646875 0.090625 -16.421875 -0.28125 C-11.32876444 -2.4694012 -5.09704521 -1.82724262 0 0 Z " fill="#FAFDFE" transform="translate(525.3125,187.1875)"/>
<path d="M0 0 C6.11536875 4.96873711 10.37620401 9.65764026 11.25 17.75390625 C11.60844142 25.09075401 9.75750167 30.14628833 5.0625 35.75 C-1.45104366 41.079263 -7.75485412 42.19456682 -16 41.4375 C-23.15178389 39.81267611 -26.82181858 36.2043791 -31.3125 30.5 C-34.24226436 25.10494611 -33.7767627 18.35769137 -33 12.4375 C-30.97178657 8.34640283 -28.30036629 5.57284798 -25 2.4375 C-24.484375 1.86 -23.96875 1.2825 -23.4375 0.6875 C-18.29395502 -3.7851478 -5.67948901 -2.98651782 0 0 Z " fill="#FCFAFD" transform="translate(528,814.5625)"/>
<path d="M0 0 C12.71983569 -0.86074076 12.71983569 -0.86074076 17.3125 2.375 C18.199375 3.24125 19.08625 4.1075 20 5 C20 5.66 20 6.32 20 7 C20.99 7 21.98 7 23 7 C28.21185973 13.67769528 27.86991638 20.80680796 27 29 C25.18643799 35.71425486 21.00216411 39.54899585 15.17578125 43.1171875 C9.71221138 45.334004 2.97890886 44.2308727 -2.75 43.5625 C-8.31036967 40.88924535 -12.45844501 36.08310997 -15.2109375 30.578125 C-16.95256391 24.88766246 -17.22624214 17.66372255 -14.5 12.25 C-13.7575 11.13625 -13.7575 11.13625 -13 10 C-12.34 10 -11.68 10 -11 10 C-10.731875 9.401875 -10.46375 8.80375 -10.1875 8.1875 C-8.94682487 5.90204582 -8.07914294 4.55935721 -6 3 C-2.8125 2.3125 -2.8125 2.3125 0 2 C0 1.34 0 0.68 0 0 Z " fill="#FBFAFD" transform="translate(275,671)"/>
<path d="M0 0 C2.13846569 1.44346434 3.9122532 2.65871242 5.5 4.6875 C5.5 5.3475 5.5 6.0075 5.5 6.6875 C6.49 6.6875 7.48 6.6875 8.5 6.6875 C12.50658503 13.53208276 12.41784479 20.94422759 11.5 28.6875 C10.30515238 31.80295453 8.93505832 34.37788408 6.5 36.6875 C5.84 36.6875 5.18 36.6875 4.5 36.6875 C4.5 37.3475 4.5 38.0075 4.5 38.6875 C2.52 39.3475 0.54 40.0075 -1.5 40.6875 C-1.5 41.3475 -1.5 42.0075 -1.5 42.6875 C-8.07686111 44.87978704 -14.19065124 44.10875582 -20.31640625 41.16796875 C-24.79754649 38.1297717 -28.09257521 33.50234959 -30.5 28.6875 C-30.59829064 26.03076192 -30.63901663 23.4061515 -30.625 20.75 C-30.62886719 20.02103516 -30.63273437 19.29207031 -30.63671875 18.54101562 C-30.6308304 15.32892264 -30.52261853 12.7553556 -29.5 9.6875 C-28.84 9.6875 -28.18 9.6875 -27.5 9.6875 C-27.335 8.965625 -27.17 8.24375 -27 7.5 C-22.04794716 -1.78509907 -9.06891226 -3.4008421 0 0 Z " fill="#FAFCFD" transform="translate(290.5,326.3125)"/>
<path d="M0 0 C4.55683099 3.35460324 7.41921452 6.77706556 8.8359375 12.3515625 C9.73123698 20.56654014 8.53379788 25.99348035 4.2109375 32.9765625 C-0.40351191 37.59101191 -5.48634787 40.61194437 -12.1015625 40.9765625 C-19.02178413 40.58851269 -25.50731307 37.58974588 -30.1640625 32.4140625 C-34.71726629 25.44196919 -35.19723193 18.22323828 -33.76953125 10.109375 C-32.03352932 4.35256861 -28.10782943 0.62526613 -23.1640625 -2.6484375 C-15.30872228 -5.4123535 -6.90208776 -4.4601939 0 0 Z " fill="#FBFAFD" transform="translate(758.1640625,670.6484375)"/>
<path d="M0 0 C4.08615058 3.16654981 6.21526556 6.58646571 7.83984375 11.42578125 C8.48170211 18.08610367 8.95681855 24.84794442 4.83984375 30.42578125 C0.38173598 35.5993878 -3.22774586 39.04681304 -10.28125 39.7265625 C-18.03844586 39.75397309 -22.69758541 39.31125695 -28.78515625 34.23828125 C-34.23330343 27.78652801 -35.60694578 22.71582274 -35.49609375 14.2578125 C-35.14993372 11.33960293 -34.37705943 9.08836542 -33.16015625 6.42578125 C-32.17015625 6.42578125 -31.18015625 6.42578125 -30.16015625 6.42578125 C-30.11890625 5.86890625 -30.07765625 5.31203125 -30.03515625 4.73828125 C-28.68462856 1.16902949 -26.19438356 -0.37291659 -23.16015625 -2.57421875 C-15.28322698 -5.22767586 -6.94304805 -4.45711041 0 0 Z " fill="#FAFDFE" transform="translate(758.16015625,323.57421875)"/>
<path d="M0 0 C3.83015902 1.51596487 5.69173177 3.57739538 8 7 C9.46036198 11.38108595 9.59626529 16.43131862 9 21 C7.1875 24.375 7.1875 24.375 5 27 C4.55785156 27.53238281 4.11570312 28.06476562 3.66015625 28.61328125 C0.40654833 31.33100081 -3.91951477 30.97511899 -8 31 C-12.83905843 30.43544318 -15.30843525 29.11045933 -18.4375 25.5 C-21.65134661 20.77375498 -21.92386318 16.55251106 -21 11 C-19.59563402 6.86492238 -17.49547652 3.63924609 -14.01171875 0.91015625 C-9.66288977 -1.0573722 -4.64154468 -0.61413196 0 0 Z " fill="#FAFBFD" transform="translate(287,494)"/>
<path d="M0 0 C3.42544691 1.63487239 5.3863339 3.34103405 7.75 6.3125 C8.5625 9.125 8.5625 9.125 8.75 12.3125 C8.811875 12.95574219 8.87375 13.59898437 8.9375 14.26171875 C9.25302702 19.4383339 8.23578324 22.27632993 4.75 26.3125 C0.49078904 30.16607182 -3.1171655 31.05563247 -8.7109375 30.8359375 C-13.07566175 29.93613281 -16.23868771 27.53047097 -19.25 24.3125 C-22.35738141 19.47195866 -22.20141861 13.83072795 -21.25 8.3125 C-15.98348822 -0.58419223 -9.72507337 -2.05722706 0 0 Z " fill="#FAFBFD" transform="translate(751.25,500.6875)"/>
<path d="M0 0 C0.99 0.33 1.98 0.66 3 1 C2.67 34.99 2.34 68.98 2 104 C3.65 104.33 5.3 104.66 7 105 C9.75 105.875 9.75 105.875 12 107 C12.33 107.99 12.66 108.98 13 110 C11.8553125 109.5359375 11.8553125 109.5359375 10.6875 109.0625 C8.81210323 108.32106407 6.91315348 107.63771783 5 107 C5 106.34 5 105.68 5 105 C3.35 105 1.7 105 0 105 C-1.13587848 80.55156794 -0.96390793 56.14977136 -0.5625 31.6875 C-0.54968616 30.90604111 -0.53687233 30.12458221 -0.5236702 29.31944275 C-0.36219887 19.54604705 -0.18725383 9.7729367 0 0 Z " fill="#ACA3E9" transform="translate(754,546)"/>
<path d="M0 0 C18.57142857 0 18.57142857 0 28 4 C24.37448546 5.28869 22.02148781 4.67372604 18.375 3.625 C12.71821336 2.00227568 8.14670608 1.61467061 2 1 C2 25.75 2 50.5 2 76 C4.97 75.01 4.97 75.01 8 74 C6.68 75.32 5.36 76.64 4 78 C5.32 78.99 6.64 79.98 8 81 C4.26915971 80.33961404 0.81602029 79.33952078 -2.75 78.0625 C-4.19632813 77.55396484 -4.19632813 77.55396484 -5.671875 77.03515625 C-8 76 -8 76 -9 74 C-6.36 74.33 -3.72 74.66 -1 75 C-0.67 50.25 -0.34 25.5 0 0 Z " fill="#6DB1E9" transform="translate(523,382)"/>
<path d="M0 0 C0.99 0.33 1.98 0.66 3 1 C0.7671363 3.7582434 -1.6909213 4.75754258 -4.92578125 6.06640625 C-12.17761523 9.33041439 -18.82599363 14.13551133 -25.45703125 18.484375 C-27.91926293 19.95188021 -30.33484761 20.96404376 -33 22 C-33.928125 22.61875 -34.85625 23.2375 -35.8125 23.875 C-38.84505097 25.89670065 -41.86397622 27.47796477 -45.12890625 29.0703125 C-48.14520652 30.56901702 -50.9689554 32.33798438 -53.80078125 34.15625 C-57.11365642 36.26619768 -60.39177992 38.24233502 -63.9375 39.9375 C-66.89913539 41.36943633 -69.54734029 43.00018201 -72.25 44.875 C-76.65313892 47.8964643 -81.280353 50.16636402 -86.078125 52.4921875 C-89.55323574 54.28549331 -92.69303505 56.39546441 -95.90625 58.61328125 C-100.59108934 61.71611327 -105.36234994 64.29529374 -111 65 C-106.9935333 61.56144023 -102.8072331 59.10970061 -98.1875 56.625 C-90.71482921 52.54334135 -83.34190676 48.31218195 -76 44 C-68.88247152 39.82167335 -61.73989233 35.71254537 -54.5 31.75 C-47.94916166 28.16267126 -41.58360565 24.34529081 -35.29882812 20.30957031 C-31.62332252 17.95841355 -27.92453162 15.92191073 -24 14 C-21.35759993 12.57244406 -18.74097952 11.10029978 -16.125 9.625 C-15.41899658 9.22941895 -14.71299316 8.83383789 -13.9855957 8.42626953 C-10.30438385 6.35125784 -6.71138078 4.21112953 -3.1875 1.875 C-2.135625 1.25625 -1.08375 0.6375 0 0 Z " fill="#71D8ED" transform="translate(474,222)"/>
<path d="M0 0 C0.33 0 0.66 0 1 0 C1.15389721 14.42073018 1.30186235 28.84151072 1.4429636 43.26237202 C1.50865189 49.95806821 1.57612894 56.65373449 1.64819336 63.34936523 C1.7175063 69.80725965 1.78184715 76.26518598 1.84269524 82.72316551 C1.86682848 85.1908162 1.89277368 87.65844984 1.92053413 90.12606239 C1.95901808 93.57400469 1.99114271 97.02195059 2.02172852 100.4699707 C2.03467453 101.49711685 2.04762054 102.524263 2.06095886 103.58253479 C2.06799835 104.52062988 2.07503784 105.45872498 2.08229065 106.42524719 C2.09058679 107.24103398 2.09888292 108.05682077 2.10743046 108.89732838 C2 111 2 111 1 114 C-0.78515625 114.95703125 -0.78515625 114.95703125 -3.0625 115.8125 C-8.01119172 117.87052735 -11.86728229 120.62742276 -16 124 C-16.55816406 124.43570313 -17.11632812 124.87140625 -17.69140625 125.3203125 C-20.93960435 127.90910196 -23.52593718 130.66953082 -26 134 C-25.45276317 130.62537285 -24.9451 128.91765 -23 126 C-22.34 126 -21.68 126 -21 126 C-20.34 124.68 -19.68 123.36 -19 122 C-18.34 122 -17.68 122 -17 122 C-17 121.34 -17 120.68 -17 120 C-14.73272667 118.82592979 -12.46165376 117.66060261 -10.1875 116.5 C-9.54490234 116.16613281 -8.90230469 115.83226562 -8.24023438 115.48828125 C-5.30452301 113.99760916 -3.33873483 113 0 113 C0 75.71 0 38.42 0 0 Z " fill="#9085E6" transform="translate(272,541)"/>
<path d="M0 0 C3.5875213 1.33250791 6.8364623 2.830717 10 5 C10 5.66 10 6.32 10 7 C10.92232422 7.30744141 10.92232422 7.30744141 11.86328125 7.62109375 C16.93164062 9.31054688 16.93164062 9.31054688 22 11 C22 26.84 22 42.68 22 59 C9.5625 59.9375 9.5625 59.9375 5.69750977 60.22631836 C0.76445335 60.60211533 -4.15632691 60.99282176 -9.0703125 61.5703125 C-11.97721939 61.88816514 -14.54397525 62.00892122 -17.4375 61.9375 C-21.05142273 61.58835972 -21.05142273 61.58835972 -23 64 C-25.27734375 64.37890625 -25.27734375 64.37890625 -27.9375 64.5625 C-30.91071147 64.77706165 -33.15058074 65.05019358 -36 66 C-36.33 65.34 -36.66 64.68 -37 64 C-17.48456609 58.22388019 0.70035568 57.79700356 21 58 C21 42.82 21 27.64 21 12 C18.525 11.505 18.525 11.505 16 11 C11.94891738 9.49959903 8.79744681 7.93885592 5.375 5.3125 C2.96236853 3.49349569 2.1760608 3.01872987 -0.9375 2.6875 C-1.618125 2.790625 -2.29875 2.89375 -3 3 C-2.01 2.01 -1.02 1.02 0 0 Z " fill="#77D9F0" transform="translate(485,235)"/>
<path d="M0 0 C0.99 0.495 0.99 0.495 2 1 C0.8803014 2.00593243 -0.2459412 3.0045849 -1.375 4 C-2.00148438 4.556875 -2.62796875 5.11375 -3.2734375 5.6875 C-5 7 -5 7 -7 7 C-7.33 7.66 -7.66 8.32 -8 9 C-9.40327993 10.04747873 -10.84741874 11.04086333 -12.3125 12 C-13.09238281 12.515625 -13.87226562 13.03125 -14.67578125 13.5625 C-16.74643478 14.84317311 -18.81824881 15.92623618 -21 17 C-27.26752796 20.6085767 -33.37373341 24.47795278 -39.45703125 28.38671875 C-46.72881356 33 -46.72881356 33 -49 33 C-49.33 33.66 -49.66 34.32 -50 35 C-55.22557499 39.05904572 -60.96257671 42.11858061 -66.93359375 44.921875 C-69.14325877 45.94337437 -69.14325877 45.94337437 -71 48 C-71.99 47.67 -72.98 47.34 -74 47 C-72.5450209 45.95365333 -71.0857589 44.91326248 -69.625 43.875 C-68.81289063 43.29492188 -68.00078125 42.71484375 -67.1640625 42.1171875 C-63.75860459 39.83847369 -60.27315831 37.74521711 -56.75244141 35.65087891 C-51.91812733 32.75131958 -47.15071085 29.7447478 -42.375 26.75 C-41.32683105 26.09394775 -40.27866211 25.43789551 -39.19873047 24.76196289 C-35.2974681 22.32000844 -31.39736206 19.87621473 -27.49804688 17.43115234 C-14.30710361 9.15978218 -14.30710361 9.15978218 -8.125 5.375 C-6.98417969 4.67503906 -6.98417969 4.67503906 -5.8203125 3.9609375 C-4 3 -4 3 -2 3 C-2 2.34 -2 1.68 -2 1 C-1.34 0.67 -0.68 0.34 0 0 Z " fill="#B275E8" transform="translate(622,757)"/>
<path d="M0 0 C0.66 0.33 1.32 0.66 2 1 C1.34 1.66 0.68 2.32 0 3 C-0.99 3 -1.98 3 -3 3 C-3 3.66 -3 4.32 -3 5 C-4.98 5.33 -6.96 5.66 -9 6 C-9.33 20.85 -9.66 35.7 -10 51 C-4.72 51 0.56 51 6 51 C10.77913437 51.33916437 15.49370335 51.73161711 20.25 52.25 C21.41273438 52.35957031 22.57546875 52.46914063 23.7734375 52.58203125 C31.61409941 53.41521121 38.63156057 55.20113541 46 58 C42.07533318 59.13475339 39.11343406 58.7562021 35.0625 58.125 C33.85722656 57.94195312 32.65195312 57.75890625 31.41015625 57.5703125 C28.59197645 57.09900179 25.79950421 56.56857401 23 56 C16.70645813 55.06762343 10.42700332 54.70169638 4.07421875 54.37890625 C-0.99084921 53.90785007 -5.99512743 52.90997683 -11 52 C-11 36.49 -11 20.98 -11 5 C-7.37 3.35 -3.74 1.7 0 0 Z " fill="#64D5EF" transform="translate(534,242)"/>
<path d="M0 0 C2.96066529 2.96066529 2.32470292 6.17856404 2.3359375 10.1484375 C2.3425943 10.95737457 2.3492511 11.76631165 2.35610962 12.59976196 C2.36624362 14.31290409 2.37092641 16.02608575 2.37060547 17.73925781 C2.3749718 20.35808647 2.4112619 22.97522053 2.44921875 25.59375 C2.45508819 27.25780673 2.45905673 28.92187148 2.4609375 30.5859375 C2.47530853 31.36834808 2.48967957 32.15075867 2.50448608 32.95687866 C2.47455989 36.52671639 2.32210981 38.57565717 0.13232422 41.46044922 C-2.29570154 43.21349827 -4.35960009 43.98936844 -7.25 44.75 C-8.14203125 44.99234375 -9.0340625 45.2346875 -9.953125 45.484375 C-10.62859375 45.65453125 -11.3040625 45.8246875 -12 46 C-12 46.66 -12 47.32 -12 48 C-12.66 48 -13.32 48 -14 48 C-14 48.66 -14 49.32 -14 50 C-16.35438733 51.42944945 -17.48032433 52.08661261 -20.25 51.625 C-20.8275 51.41875 -21.405 51.2125 -22 51 C-20.9790625 50.4121875 -20.9790625 50.4121875 -19.9375 49.8125 C-17.72810253 48.44925475 -15.79188406 47.07543968 -13.75 45.5 C-10 43 -10 43 -1 40 C-0.67 26.8 -0.34 13.6 0 0 Z " fill="#A04CE6" transform="translate(507,755)"/>
<path d="M0 0 C4.36705098 3.63920915 5.6659753 7.40227563 6.1875 13.01953125 C6.4463537 21.48081149 3.68617677 25.99034778 -1.91015625 32.01171875 C-7.38362809 37.21919009 -13.5846116 38.29023109 -20.9296875 38.234375 C-24.3222416 37.85031227 -26.9604891 36.51975545 -30 35 C-26.98968256 34.06576355 -26.13349732 33.95550089 -23 35 C-14.57183311 35.83056249 -8.79911595 34.81257391 -2.17578125 29.55078125 C2.77949971 24.41068795 2.53604594 18.90227052 2.48242188 12.16723633 C2.32675809 7.78619874 1.61316489 4.12397799 0 0 Z " fill="#78E2F1" transform="translate(534,194)"/>
<path d="M0 0 C0 0.33 0 0.66 0 1 C-2.76964737 1.34736899 -5.53990505 1.67765589 -8.3125 2 C-9.43301758 2.14308594 -9.43301758 2.14308594 -10.57617188 2.2890625 C-19.82735493 3.33777961 -28.48562019 3 -38 3 C-38 15.87 -38 28.74 -38 42 C-36.02 42 -34.04 42 -32 42 C-32 42.66 -32 43.32 -32 44 C-29.69 44.66 -27.38 45.32 -25 46 C-25 46.66 -25 47.32 -25 48 C-27.97 47.01 -30.94 46.02 -34 45 C-34 44.34 -34 43.68 -34 43 C-35.65 43 -37.3 43 -39 43 C-39 29.47 -39 15.94 -39 2 C-31.08 1.505 -31.08 1.505 -23 1 C-21.35 0.67 -19.7 0.34 -18 0 C-11.806832 -0.82210195 -6.14473358 -1.22894672 0 0 Z " fill="#BB7EEC" transform="translate(563,753)"/>
<path d="M0 0 C0.33 0 0.66 0 1 0 C1 24.75 1 49.5 1 75 C3.97 74.01 3.97 74.01 7 73 C5.68 74.32 4.36 75.64 3 77 C4.32 77.99 5.64 78.98 7 80 C3.26915971 79.33961404 -0.18397971 78.33952078 -3.75 77.0625 C-5.19632813 76.55396484 -5.19632813 76.55396484 -6.671875 76.03515625 C-9 75 -9 75 -10 73 C-6.7 73.99 -3.4 74.98 0 76 C0 50.92 0 25.84 0 0 Z " fill="#B0D5F2" transform="translate(524,383)"/>
<path d="M0 0 C2.475 0.495 2.475 0.495 5 1 C5 1.66 5 2.32 5 3 C5.7425 3.0825 6.485 3.165 7.25 3.25 C10.57773626 4.15756443 11.62426428 5.55227229 14 8 C15.051875 8.495 16.10375 8.99 17.1875 9.5 C20 11 20 11 20.875 13.1875 C20.91625 13.785625 20.9575 14.38375 21 15 C20.01 15.33 19.02 15.66 18 16 C19.09175806 24.06042656 20.3062956 32.04385917 22 40 C22.33513591 41.66630514 22.66892074 43.3328841 23 45 C18.97553584 41.31002761 17.26592092 36.84529878 16.76416016 31.4765625 C16.70632292 28.81110636 16.73696849 26.16490655 16.8125 23.5 C16.83280273 22.12328125 16.83280273 22.12328125 16.85351562 20.71875 C16.88851903 18.47853197 16.93761131 16.23959406 17 14 C17.66 14 18.32 14 19 14 C19 13.34 19 12.68 19 12 C18.113125 11.7525 17.22625 11.505 16.3125 11.25 C12.83035975 9.93598481 10.87355353 8.32621 8 6 C5.38172082 4.56116995 2.70700377 3.26282062 0 2 C0 1.34 0 0.68 0 0 Z " fill="#C179ED" transform="translate(459,809)"/>
<path d="M0 0 C3.5875213 1.33250791 6.8364623 2.830717 10 5 C10 5.66 10 6.32 10 7 C10.61488281 7.20496094 11.22976563 7.40992188 11.86328125 7.62109375 C15.2421875 8.74739583 18.62109375 9.87369792 22 11 C22 26.51 22 42.02 22 58 C21.67 58 21.34 58 21 58 C21 42.82 21 27.64 21 12 C18.525 11.505 18.525 11.505 16 11 C11.94891738 9.49959903 8.79744681 7.93885592 5.375 5.3125 C2.96236853 3.49349569 2.1760608 3.01872987 -0.9375 2.6875 C-1.618125 2.790625 -2.29875 2.89375 -3 3 C-2.01 2.01 -1.02 1.02 0 0 Z " fill="#9AE5F4" transform="translate(485,235)"/>
<path d="M0 0 C0.66 0.33 1.32 0.66 2 1 C0.71034824 2.37562854 -0.62689293 3.70766393 -2 5 C-2.66 5 -3.32 5 -4 5 C-4.33 5.66 -4.66 6.32 -5 7 C-6.61404012 8.11020183 -8.26725575 9.16380191 -9.9375 10.1875 C-14.66759649 13.12766401 -19.21502252 16.23405492 -23.7109375 19.51953125 C-26.06732885 21.04354545 -28.36701439 22.0463568 -31 23 C-31.33 22.34 -31.66 21.68 -32 21 C-31.34 21 -30.68 21 -30 21 C-30 20.34 -30 19.68 -30 19 C-29.01 19 -28.02 19 -27 19 C-27 18.34 -27 17.68 -27 17 C-25.02 16.34 -23.04 15.68 -21 15 C-21 14.34 -21 13.68 -21 13 C-19.21118264 11.99491199 -17.41885304 10.99607264 -15.625 10 C-14.62726562 9.443125 -13.62953125 8.88625 -12.6015625 8.3125 C-10 7 -10 7 -8 7 C-8 6.34 -8 5.68 -8 5 C-6.3203125 3.67578125 -6.3203125 3.67578125 -4.125 2.3125 C-3.40570312 1.85488281 -2.68640625 1.39726563 -1.9453125 0.92578125 C-1.30335938 0.62027344 -0.66140625 0.31476562 0 0 Z " fill="#9F6CE6" transform="translate(657,735)"/>
<path d="M0 0 C0.66 0.33 1.32 0.66 2 1 C-11.78659709 12.42872837 -11.78659709 12.42872837 -17.8125 13.5 C-18.534375 13.665 -19.25625 13.83 -20 14 C-21.09166275 15.93330603 -21.09166275 15.93330603 -22 18 C-23.75 19.0625 -23.75 19.0625 -26 20 C-27.010625 20.556875 -28.02125 21.11375 -29.0625 21.6875 C-32 23 -32 23 -35 22 C-26.31232784 16.55765852 -17.61757499 11.13020811 -8.8671875 5.7890625 C-5.86775262 3.91748052 -2.93204862 1.97500011 0 0 Z " fill="#A382E6" transform="translate(701,708)"/>
<path d="M0 0 C3.42443155 1.71221578 3.95676415 5.20843434 5.17578125 8.6796875 C7.08085794 16.35416705 6.43470635 24.28991143 5 32 C4.34 32 3.68 32 3 32 C2.896875 32.94875 2.79375 33.8975 2.6875 34.875 C2 38 2 38 -1 40 C0 36 1 32 2 28 C2.66 28 3.32 28 4 28 C3.9278125 27.443125 3.855625 26.88625 3.78125 26.3125 C3.30596602 22.40460946 2.95122916 18.62648787 3.0625 14.6875 C3.00151303 11.08926877 2.64519217 10.00005631 1 7 C0.61250787 4.67504723 0.27017161 2.34148732 0 0 Z " fill="#9470E0" transform="translate(780,669)"/>
<path d="M0 0 C2.60513959 3.90770938 2.29367565 7.22229079 2.25 11.75 C2.25773438 12.53632813 2.26546875 13.32265625 2.2734375 14.1328125 C2.25683836 19.12915245 1.59566195 23.26367009 0 28 C-0.66 28 -1.32 28 -2 28 C-2.07992187 28.721875 -2.15984375 29.44375 -2.2421875 30.1875 C-4.31436308 37.87804853 -12.52114419 43.86456012 -19 48 C-19 47.01 -19 46.02 -19 45 C-17.02053408 43.63636792 -15.0180755 42.30581356 -13 41 C-11.97676564 39.68441297 -10.96873032 38.35622245 -10 37 C-9.34 37 -8.68 37 -8 37 C-6.206212 33.68839138 -4.99447191 30.26098021 -3.78125 26.70703125 C-3 25 -3 25 -1 24 C0.02906196 21.06585411 0.11745655 18.32322143 0.09765625 15.234375 C0.09282227 13.90019531 0.09282227 13.90019531 0.08789062 12.5390625 C0.07951172 11.61867188 0.07113281 10.69828125 0.0625 9.75 C0.05798828 8.81414062 0.05347656 7.87828125 0.04882812 6.9140625 C0.03706918 4.60930959 0.02063426 2.30468773 0 0 Z " fill="#84CCEB" transform="translate(783,329)"/>
<path d="M0 0 C-1.16402344 0.43699219 -1.16402344 0.43699219 -2.3515625 0.8828125 C-19.16079247 7.15223282 -19.16079247 7.15223282 -34.81640625 15.80078125 C-37.2138444 17.11744227 -39.30778681 17.59782404 -42 18 C-38.12374407 13.66192451 -34.23040522 11.2877748 -29 8.8125 C-28.30132812 8.47025391 -27.60265625 8.12800781 -26.8828125 7.77539062 C-16.43756761 2.70057825 -16.43756761 2.70057825 -10 3 C-10 2.34 -10 1.68 -10 1 C-6.16112237 -0.48320272 -3.93795909 -1.22419163 0 0 Z " fill="#71D4EE" transform="translate(444,301)"/>
<path d="M0 0 C0.66 0.33 1.32 0.66 2 1 C0.3137003 2.54297948 -1.3741062 4.08431225 -3.0625 5.625 C-3.81696411 6.31505127 -3.81696411 6.31505127 -4.58666992 7.01904297 C-7.27197009 9.46539146 -9.99135882 11.83758823 -12.8125 14.125 C-18.58452924 19.02708225 -22.4284685 25.40640338 -26 32 C-26.66 32 -27.32 32 -28 32 C-28.33 32.66 -28.66 33.32 -29 34 C-26.46455711 21.14991445 -12.50628283 9.96194085 -3 2 C-2.01 1.34 -1.02 0.68 0 0 Z " fill="#6FCEEE" transform="translate(400,319)"/>
<path d="M0 0 C3.01485137 1.81226687 4.81996193 3.86297889 6.8125 6.75 C4.82872488 5.76910897 2.86018332 4.77605377 0.91796875 3.71484375 C-7.80083793 -0.95531135 -18.69393633 -1.97128384 -28.296875 0.57421875 C-30.9751611 1.54781194 -33.57879228 2.60450975 -36.1875 3.75 C-37.85256701 4.42065199 -39.51878619 5.08847417 -41.1875 5.75 C-41.1875 5.09 -41.1875 4.43 -41.1875 3.75 C-39.5845947 2.93501438 -37.98012722 2.12310073 -36.375 1.3125 C-35.48167969 0.86003906 -34.58835937 0.40757812 -33.66796875 -0.05859375 C-24.62953838 -4.39988708 -9.00019639 -4.37920004 0 0 Z " fill="#77D4EE" transform="translate(762.1875,304.25)"/>
<path d="M0 0 C0.52851563 0.2371875 1.05703125 0.474375 1.6015625 0.71875 C0.58449219 1.21181641 0.58449219 1.21181641 -0.453125 1.71484375 C-11.63256682 7.42843659 -19.286439 13.60515421 -23.5234375 25.46875 C-23.87664062 26.45359375 -24.22984375 27.4384375 -24.59375 28.453125 C-24.85929687 29.20078125 -25.12484375 29.9484375 -25.3984375 30.71875 C-25.7284375 30.71875 -26.0584375 30.71875 -26.3984375 30.71875 C-25.74220754 21.53153061 -22.37706374 13.91011247 -15.3984375 7.71875 C-3.98611126 -0.46742673 -3.98611126 -0.46742673 0 0 Z " fill="#64DFEF" transform="translate(503.3984375,170.28125)"/>
<path d="M0 0 C0.66 0.33 1.32 0.66 2 1 C-9.32247635 10.00371213 -9.32247635 10.00371213 -14.6875 12 C-17.31863969 12.8891283 -17.31863969 12.8891283 -19 16 C-21.27734375 17.38671875 -21.27734375 17.38671875 -23.9375 18.6875 C-25.25041016 19.34298828 -25.25041016 19.34298828 -26.58984375 20.01171875 C-29 21 -29 21 -32 21 C-30.1047083 18.78882635 -28.60406096 17.80607067 -25.9375 16.5 C-22.76974251 15.18410745 -22.76974251 15.18410745 -21 12 C-19.03875312 10.92598385 -17.02915769 9.93942486 -15 9 C-9.56426949 6.453035 -4.80839803 3.60629852 0 0 Z " fill="#C07FEC" transform="translate(598,792)"/>
<path d="M0 0 C0.66 0.33 1.32 0.66 2 1 C-3.88002779 6.04002382 -9.29476359 7.93621493 -17 8 C-19.78664819 7.54324806 -22.29145955 6.83718523 -25 6 C-25 5.34 -25 4.68 -25 4 C-26.32 3.34 -27.64 2.68 -29 2 C-26 2 -26 2 -22.875 3 C-16.08515145 5.0054405 -9.62988317 4.38675794 -3 2 C-2.01 1.34 -1.02 0.68 0 0 Z " fill="#CA7BED" transform="translate(531,851)"/>
<path d="M0 0 C0 0.66 0 1.32 0 2 C-1.26714844 1.95359375 -2.53429687 1.9071875 -3.83984375 1.859375 C-15.51850959 1.27465949 -15.51850959 1.27465949 -26.30859375 5.125 C-28 6 -28 6 -32 6 C-30.6875 4.5 -30.6875 4.5 -29 3 C-28.01 3 -27.02 3 -26 3 C-26 2.34 -26 1.68 -26 1 C-17.91402016 -1.58751355 -8.22237248 -2.54405089 0 0 Z " fill="#8CD7EE" transform="translate(292,307)"/>
<path d="M0 0 C0.66 0 1.32 0 2 0 C3.92853582 5.78560747 3.4968936 12.36646391 2.375 18.3125 C-0.01395104 22.98181339 -2.74983496 27.26625053 -7.875 28.9375 C-8.57625 28.958125 -9.2775 28.97875 -10 29 C-8.68 28.34 -7.36 27.68 -6 27 C-6 26.34 -6 25.68 -6 25 C-5.34 25 -4.68 25 -4 25 C-3.71125 24.236875 -3.4225 23.47375 -3.125 22.6875 C-2 20 -2 20 0 17 C0.27356843 15.06862318 0.27356843 15.06862318 0.1953125 12.98828125 C0.18886719 12.23095703 0.18242187 11.47363281 0.17578125 10.69335938 C0.15902344 9.90767578 0.14226562 9.12199219 0.125 8.3125 C0.11597656 7.51521484 0.10695313 6.71792969 0.09765625 5.89648438 C0.07411585 3.930861 0.03824547 1.96539225 0 0 Z " fill="#7ACAEA" transform="translate(301,338)"/>
<path d="M0 0 C-1.38941093 4.16823279 -4.27249826 5.14175823 -7.9375 7.125 C-8.58396484 7.48464844 -9.23042969 7.84429687 -9.89648438 8.21484375 C-12.24474134 9.51699247 -14.5981601 10.79908005 -17 12 C-17.66 11.67 -18.32 11.34 -19 11 C-19.33 11.99 -19.66 12.98 -20 14 C-23.375 15.75 -23.375 15.75 -27 17 C-27.99 16.67 -28.98 16.34 -30 16 C-24.25568687 12.44341464 -18.47499583 9.18639388 -12.3984375 6.234375 C-9.32913749 4.65473526 -6.46485574 2.83007811 -3.59375 0.91796875 C-2 0 -2 0 0 0 Z " fill="#76D1EB" transform="translate(347,296)"/>
<path d="M0 0 C0.66 0.33 1.32 0.66 2 1 C0.576875 1.928125 0.576875 1.928125 -0.875 2.875 C-3.94445109 4.81970969 -3.94445109 4.81970969 -6 7 C-7.67120802 7.62848849 -9.36230052 8.20478835 -11.0625 8.75 C-15.96811531 10.45602107 -19.8607759 12.65421772 -24.02734375 15.73046875 C-26.04012423 17.02582253 -27.66176728 17.56583151 -30 18 C-30 17.34 -30 16.68 -30 16 C-28.35546875 14.7109375 -28.35546875 14.7109375 -26.1875 13.375 C-25.47980469 12.92898438 -24.77210938 12.48296875 -24.04296875 12.0234375 C-22 11 -22 11 -19 11 C-19 10.34 -19 9.68 -19 9 C-16.69 8.34 -14.38 7.68 -12 7 C-12 6.34 -12 5.68 -12 5 C-10.6078125 4.8453125 -10.6078125 4.8453125 -9.1875 4.6875 C-5.8495811 3.96755671 -5.14853242 3.45546562 -3 1 C-2.01 0.67 -1.02 0.34 0 0 Z " fill="#84D2ED" transform="translate(353,312)"/>
<path d="M0 0 C1.58468677 0.45363171 3.16769924 0.91311452 4.75 1.375 C5.63171875 1.63023437 6.5134375 1.88546875 7.421875 2.1484375 C9.76080572 2.9209934 11.83442562 3.83625676 14 5 C14 5.66 14 6.32 14 7 C8.125 5.125 8.125 5.125 7 4 C-0.86087377 3.35525956 -7.52237987 3.41790389 -13.875 8.5 C-15.21740659 10.12517349 -15.21740659 10.12517349 -16 13 C-16.99 13 -17.98 13 -19 13 C-16.97150461 8.47263348 -14.17433056 5.65496822 -10 3 C-7.6023809 2.21623723 -5.30973895 1.71661987 -2.8203125 1.32421875 C-0.98585185 1.17657126 -0.98585185 1.17657126 0 0 Z " fill="#72CFEB" transform="translate(744,317)"/>
<path d="M0 0 C-0.56847656 0.36351562 -1.13695312 0.72703125 -1.72265625 1.1015625 C-8.71839309 5.65638281 -15.01196101 10.21626698 -20 17 C-19.45276317 13.62537285 -18.9451 11.91765 -17 9 C-16.34 9 -15.68 9 -15 9 C-14.34 7.68 -13.68 6.36 -13 5 C-12.34 5 -11.68 5 -11 5 C-11 4.34 -11 3.68 -11 3 C-4.03571429 -1.41964286 -4.03571429 -1.41964286 0 0 Z " fill="#8B71E2" transform="translate(266,658)"/>
<path d="M0 0 C10.32133809 0.24458147 19.32456208 0.99187061 29 5 C25.19011656 6.34913578 22.00104536 5.7386901 18.0625 5.125 C16.85722656 4.94195312 15.65195312 4.75890625 14.41015625 4.5703125 C9.40782535 3.73372566 4.79597794 2.67301556 0 1 C0 0.67 0 0.34 0 0 Z " fill="#71D9F2" transform="translate(551,295)"/>
<path d="M0 0 C1.44149414 0.14985352 1.44149414 0.14985352 2.91210938 0.30273438 C5.2549455 0.5475083 7.59649414 0.80089396 9.9375 1.0625 C9.9375 1.3925 9.9375 1.7225 9.9375 2.0625 C5.68755737 2.12055933 1.43771676 2.15611654 -2.8125 2.1875 C-4.0190625 2.20425781 -5.225625 2.22101562 -6.46875 2.23828125 C-7.62890625 2.24472656 -8.7890625 2.25117187 -9.984375 2.2578125 C-11.05268555 2.26828613 -12.12099609 2.27875977 -13.22167969 2.28955078 C-16.04229105 2.06411519 -17.67037463 1.52098994 -20.0625 0.0625 C-13.14979651 -0.95136318 -6.92786919 -0.77619133 0 0 Z " fill="#B77DEC" transform="translate(497.0625,752.9375)"/>
<path d="M0 0 C0.99 0.33 1.98 0.66 3 1 C1.24835819 4.50328362 -3.17823273 5.63803029 -6.6328125 7.2578125 C-9.61834448 8.69389117 -12.13847334 10.11406041 -14.703125 12.2265625 C-17 14 -17 14 -21 14 C-21 13.34 -21 12.68 -21 12 C-20.195625 11.87625 -19.39125 11.7525 -18.5625 11.625 C-17.716875 11.41875 -16.87125 11.2125 -16 11 C-15.67 10.34 -15.34 9.68 -15 9 C-13.44969626 7.96933511 -11.85942715 6.99815809 -10.25 6.0625 C-9.38890625 5.55847656 -8.5278125 5.05445313 -7.640625 4.53515625 C-6.76921875 4.02855469 -5.8978125 3.52195312 -5 3 C-4.12859375 2.42121094 -3.2571875 1.84242188 -2.359375 1.24609375 C-1.58078125 0.83488281 -0.8021875 0.42367187 0 0 Z " fill="#6DD7F0" transform="translate(453,253)"/>
<path d="M0 0 C2.2486415 1.12432075 4.33902271 2.22601514 6.4375 3.625 C12.95176948 6.13927945 20.19013172 6.09537238 26.6875 3.5625 C27.450625 3.046875 28.21375 2.53125 29 2 C29.66 1.67 30.32 1.34 31 1 C30.10606001 3.23484998 29.42763976 4.69485002 27.4453125 6.109375 C23.87746735 7.40884576 20.37374533 7.36855886 16.625 7.375 C15.51125 7.41173828 15.51125 7.41173828 14.375 7.44921875 C9.12445689 7.47704848 6.15223689 6.47483269 2 3 C1.34 2.01 0.68 1.02 0 0 Z " fill="#8CD4EE" transform="translate(728,357)"/>
<path d="M0 0 C3.99959824 -0.23132005 5.6485244 -0.10541082 9.09375 2.19140625 C9.75375 2.85140625 10.41375 3.51140625 11.09375 4.19140625 C10.37832031 4.03285156 9.66289062 3.87429688 8.92578125 3.7109375 C0.62812293 2.18874639 -5.71488865 2.80291402 -12.90625 7.19140625 C-14.23440854 7.86832361 -15.56650171 8.53772686 -16.90625 9.19140625 C-15.15159158 4.8992418 -12.99227559 3.87306967 -8.91796875 2.0078125 C-5.90901471 0.786703 -3.21042646 0.32235839 0 0 Z " fill="#61C4E7" transform="translate(280.90625,322.80859375)"/>
<path d="M0 0 C3.20210032 4.80315047 3.15663539 9.25223936 3.1875 14.9375 C3.20167969 16.12214844 3.21585938 17.30679688 3.23046875 18.52734375 C2.99882699 22.01767466 2.25530126 24.7501094 1 28 C-0.02808383 24.9157485 0.03565763 23.85265128 0.5 20.75 C1.31480263 13.79839272 0.60185859 6.94452217 0 0 Z " fill="#B45AE8" transform="translate(554,821)"/>
<path d="M0 0 C2 1 2 1 3.09765625 3.203125 C4.93987818 8.91321547 5.04465785 15.07412563 3.01953125 20.74609375 C-0.06770515 26.68308682 -0.06770515 26.68308682 -3.171875 27.73828125 C-3.77515625 27.82464844 -4.3784375 27.91101563 -5 28 C-4.38125 27.278125 -3.7625 26.55625 -3.125 25.8125 C0.4526557 21.07736746 1.26337922 17.40478316 1.1875 11.5 C1.18105469 10.3965625 1.17460938 9.293125 1.16796875 8.15625 C1.01744156 5.32773917 0.64204162 2.75307445 0 0 Z " fill="#78CDEA" transform="translate(764,330)"/>
<path d="M0 0 C3.5875213 1.33250791 6.8364623 2.830717 10 5 C10 5.66 10 6.32 10 7 C10.61488281 7.20496094 11.22976563 7.40992188 11.86328125 7.62109375 C15.2421875 8.74739583 18.62109375 9.87369792 22 11 C21.67 11.66 21.34 12.32 21 13 C14.71786576 10.77043252 9.43081164 8.20834503 4.10546875 4.171875 C1.56923344 2.76024125 -0.14124989 2.78047992 -3 3 C-2.01 2.01 -1.02 1.02 0 0 Z " fill="#76DDEE" transform="translate(485,235)"/>
<path d="M0 0 C3.41811145 1.70905572 3.95001122 5.194939 5.1796875 8.65625 C6.59023428 14.40590734 6.30885421 20.12319068 6 26 C5.67 26 5.34 26 5 26 C4.87882813 24.96359375 4.75765625 23.9271875 4.6328125 22.859375 C4.46392819 21.48953562 4.29463589 20.11974651 4.125 18.75 C4.04636719 18.06808594 3.96773437 17.38617187 3.88671875 16.68359375 C3.42739047 13.04430046 2.77155659 10.20023125 1 7 C0.61250787 4.67504723 0.27017161 2.34148732 0 0 Z " fill="#B29DE1" transform="translate(780,669)"/>
<path d="M0 0 C0.66 0.33 1.32 0.66 2 1 C-0.24741572 3.45564273 -2.52555675 5.02416779 -5.4375 6.625 C-6.19933594 7.05039062 -6.96117187 7.47578125 -7.74609375 7.9140625 C-9.84158566 8.92367559 -11.7292378 9.53446789 -14 10 C-10.66495886 4.69425273 -5.76676861 2.10979339 0 0 Z " fill="#937EE6" transform="translate(731,650)"/>
<path d="M0 0 C1.051875 0.495 2.10375 0.99 3.1875 1.5 C11.07663444 4.46193482 20.17528019 3.91152365 28 1 C28 1.66 28 2.32 28 3 C18.20097886 6.77811722 7.57376467 6.03105881 -2 2 C-1.34 1.34 -0.68 0.68 0 0 Z " fill="#AB87EA" transform="translate(730,724)"/>
<path d="M0 0 C-6.16742941 5.68052709 -13.23500811 8.96874648 -21 12 C-17.95953351 8.72565147 -14.76823271 6.39137845 -11 4 C-10.32066406 3.53851562 -9.64132812 3.07703125 -8.94140625 2.6015625 C-8.23886719 2.13492188 -7.53632812 1.66828125 -6.8125 1.1875 C-6.15894531 0.74792969 -5.50539063 0.30835938 -4.83203125 -0.14453125 C-3 -1 -3 -1 0 0 Z " fill="#B077E9" transform="translate(644,766)"/>
<path d="M0 0 C0.51949219 0.33773437 1.03898438 0.67546875 1.57421875 1.0234375 C8.84285405 5.67213956 14.39411135 7.36500239 23 8 C21 10 21 10 18.86328125 10.08203125 C12.15848468 9.37356117 6.84909202 8.41077017 1.5625 3.9375 C0 2 0 2 0 0 Z " fill="#A887E8" transform="translate(728,703)"/>
<path d="M0 0 C0.66 0.33 1.32 0.66 2 1 C0.42040347 2.29623379 -1.16383413 3.58681327 -2.75 4.875 C-3.63171875 5.59429688 -4.5134375 6.31359375 -5.421875 7.0546875 C-9.46017699 10.10176991 -9.46017699 10.10176991 -12 11 C-13.34344291 10.71008613 -14.67951293 10.38105484 -16 10 C-13.38321437 8.29948946 -10.75537761 6.61689493 -8.125 4.9375 C-7.37863281 4.45216797 -6.63226562 3.96683594 -5.86328125 3.46679688 C-5.14785156 3.01240234 -4.43242188 2.55800781 -3.6953125 2.08984375 C-3.03547363 1.66566162 -2.37563477 1.24147949 -1.69580078 0.80444336 C-1.13618652 0.53897705 -0.57657227 0.27351074 0 0 Z " fill="#A487E7" transform="translate(701,708)"/>
<path d="M0 0 C9.94184401 -0.48894315 17.67778315 0.11140303 27 4 C23.38711995 5.28116314 21.06851523 4.67900975 17.4375 3.625 C11.62259919 2.0586245 6.0015349 1.34260731 0 1 C0 0.67 0 0.34 0 0 Z " fill="#7CC8EA" transform="translate(524,382)"/>
<path d="M0 0 C0.66 0.33 1.32 0.66 2 1 C1.01 1.33 0.02 1.66 -1 2 C-1.70299431 3.31454221 -2.36410822 4.65171818 -3 6 C-4.16897337 7.4493154 -5.37939308 8.86599231 -6.625 10.25 C-7.25664062 10.95640625 -7.88828125 11.6628125 -8.5390625 12.390625 C-9.02117187 12.92171875 -9.50328125 13.4528125 -10 14 C-10.33 13.01 -10.66 12.02 -11 11 C-9.70703125 9.0625 -9.70703125 9.0625 -7.8125 7 C-7.20019531 6.319375 -6.58789062 5.63875 -5.95703125 4.9375 C-4.07922774 3.07843705 -2.15232719 1.52715011 0 0 Z " fill="#74CDEA" transform="translate(258,313)"/>
<path d="M0 0 C0.33 0 0.66 0 1 0 C1.19658808 1.41543415 1.38187546 2.83244031 1.5625 4.25 C1.66691406 5.03890625 1.77132812 5.8278125 1.87890625 6.640625 C2.00163018 9.03176222 1.58394789 10.70070519 1 13 C1.08816364 15.1421654 1.08816364 15.1421654 1.4375 17.25 C1.623125 18.4875 1.80875 19.725 2 21 C1.01 21 0.02 21 -1 21 C-1.0270203 18.24993392 -1.04684883 15.50013454 -1.0625 12.75 C-1.07087891 11.97269531 -1.07925781 11.19539062 -1.08789062 10.39453125 C-1.09111328 9.64042969 -1.09433594 8.88632812 -1.09765625 8.109375 C-1.10289307 7.41811523 -1.10812988 6.72685547 -1.11352539 6.01464844 C-0.99437971 3.90026102 -0.57618237 2.03358485 0 0 Z " fill="#9A77E4" transform="translate(706,677)"/>
<path d="M0 0 C0 0.66 0 1.32 0 2 C2.97 2.495 2.97 2.495 6 3 C3.23434618 3.92188461 1.61716298 4.11785222 -1.23046875 4.09765625 C-2.03291016 4.09443359 -2.83535156 4.09121094 -3.66210938 4.08789062 C-4.49548828 4.07951172 -5.32886719 4.07113281 -6.1875 4.0625 C-7.03248047 4.05798828 -7.87746094 4.05347656 -8.74804688 4.04882812 C-10.83206155 4.03705403 -12.91603977 4.0191189 -15 4 C-12.49757535 1.49757535 -10.95406099 1.44764695 -7.5 0.875 C-6.03046875 0.62363281 -6.03046875 0.62363281 -4.53125 0.3671875 C-2 0 -2 0 0 0 Z " fill="#C079ED" transform="translate(521,810)"/>
<path d="M0 0 C-9.42857143 8 -9.42857143 8 -15 8 C-6.875 -0.58928571 -6.875 -0.58928571 0 0 Z " fill="#A764E6" transform="translate(611,767)"/>
<path d="M0 0 C0.33 0.99 0.66 1.98 1 3 C-0.33333333 3.66666667 -1.66666667 4.33333333 -3 5 C-3.55945313 5.34804688 -4.11890625 5.69609375 -4.6953125 6.0546875 C-7.89363745 7.36654282 -10.68072197 7.26438112 -14.125 7.25 C-15.36507813 7.25515625 -16.60515625 7.2603125 -17.8828125 7.265625 C-21 7 -21 7 -23 5 C-22.01 5.05800781 -21.02 5.11601563 -20 5.17578125 C-11.96578422 5.5010943 -6.47454492 5.28534279 0 0 Z " fill="#B491EB" transform="translate(296,709)"/>
<path d="M0 0 C-0.99774172 2.55872472 -1.64338111 3.78313716 -4.0234375 5.23046875 C-4.79945313 5.54628906 -5.57546875 5.86210938 -6.375 6.1875 C-7.14585937 6.51105469 -7.91671875 6.83460938 -8.7109375 7.16796875 C-10.79519401 7.92555687 -12.83877392 8.51150369 -15 9 C-15 8.34 -15 7.68 -15 7 C-12.87767021 5.82823482 -10.75242209 4.66245215 -8.625 3.5 C-7.72007812 2.99919922 -7.72007812 2.99919922 -6.796875 2.48828125 C-2.2265625 0 -2.2265625 0 0 0 Z " fill="#977FE6" transform="translate(332,654)"/>
<path d="M0 0 C0.825 0.350625 1.65 0.70125 2.5 1.0625 C6.86018394 2.23040641 9.56569236 1.72693568 14 1 C14.99 1 15.98 1 17 1 C15.68 1.99 14.36 2.98 13 4 C14.32 4.99 15.64 5.98 17 7 C13.26915971 6.33961404 9.81602029 5.33952078 6.25 4.0625 C5.28578125 3.72347656 4.3215625 3.38445312 3.328125 3.03515625 C1 2 1 2 0 0 Z " fill="#A3C6ED" transform="translate(514,456)"/>
<path d="M0 0 C7.26 0 14.52 0 22 0 C22 0.66 22 1.32 22 2 C18.47682119 3.13245033 18.47682119 3.13245033 16.3125 2.53125 C13.10108095 1.79349157 10.04001398 1.90703691 6.75 1.9375 C4.85507812 1.95103516 4.85507812 1.95103516 2.921875 1.96484375 C1.95765625 1.97644531 0.9934375 1.98804688 0 2 C0 1.34 0 0.68 0 0 Z " fill="#7DE4F2" transform="translate(505,168)"/>
<path d="M0 0 C0.66 0.33 1.32 0.66 2 1 C-3.75 5 -3.75 5 -6 5 C-6 5.66 -6 6.32 -6 7 C-6.66 7 -7.32 7 -8 7 C-8 7.66 -8 8.32 -8 9 C-10.35438733 10.42944945 -11.48032433 11.08661261 -14.25 10.625 C-14.8275 10.41875 -15.405 10.2125 -16 10 C-15.319375 9.608125 -14.63875 9.21625 -13.9375 8.8125 C-11.6830962 7.42148489 -9.57352156 5.99348122 -7.4375 4.4375 C-2.61821247 0.96970832 -2.61821247 0.96970832 0 0 Z " fill="#B76FEB" transform="translate(501,796)"/>
<path d="M0 0 C-2.69224312 3.3257121 -6.11927428 4.40613051 -10 6 C-10.99 6.66 -11.98 7.32 -13 8 C-15.1875 7.625 -15.1875 7.625 -17 7 C-15.41779413 6.03980636 -13.83418669 5.08192202 -12.25 4.125 C-10.92742187 3.32449219 -10.92742187 3.32449219 -9.578125 2.5078125 C-8.72734375 2.01023438 -7.8765625 1.51265625 -7 1 C-6.29359375 0.58492187 -5.5871875 0.16984375 -4.859375 -0.2578125 C-3 -1 -3 -1 0 0 Z " fill="#73E0F1" transform="translate(477,223)"/>
<path d="M0 0 C0.99 0 1.98 0 3 0 C1.04225352 7.83098592 1.04225352 7.83098592 -2 11 C-2.66 11 -3.32 11 -4 11 C-3.21681311 7.08406554 -1.60820142 3.63593365 0 0 Z " fill="#9263E6" transform="translate(301,700)"/>
<path d="M0 0 C-4.44945171 3.36421959 -7.35675611 4.33608895 -13 5 C-13.33 5.66 -13.66 6.32 -14 7 C-14.66 6.34 -15.32 5.68 -16 5 C-14.41925436 4.18247697 -12.83528777 3.37118003 -11.25 2.5625 C-10.36828125 2.11003906 -9.4865625 1.65757812 -8.578125 1.19140625 C-2.88188976 -1.44094488 -2.88188976 -1.44094488 0 0 Z " fill="#957DE7" transform="translate(348,648)"/>
<path d="M0 0 C6.13722814 0.32301201 11.16230728 3.3956321 16 7 C16 7.66 16 8.32 16 9 C12.20950293 7.57250019 8.72877544 5.83763458 5.1875 3.875 C4.21167969 3.33617187 3.23585938 2.79734375 2.23046875 2.2421875 C1.49441406 1.83226562 0.75835938 1.42234375 0 1 C0 0.67 0 0.34 0 0 Z " fill="#7BD8ED" transform="translate(615,276)"/>
<path d="M0 0 C0.66 0 1.32 0 2 0 C2.33 0.99 2.66 1.98 3 3 C2.38125 3.7425 1.7625 4.485 1.125 5.25 C-1.41935822 8.54269888 -1.67915589 10.90923765 -2 15 C-2.33 15 -2.66 15 -3 15 C-3.3152595 9.01006953 -2.68219822 5.36439644 0 0 Z " fill="#68C7E9" transform="translate(245,327)"/>
<path d="M0 0 C-1 3 -1 3 -3.6875 4.5 C-5.3271875 5.2425 -5.3271875 5.2425 -7 6 C-8.051875 6.5775 -9.10375 7.155 -10.1875 7.75 C-13 9 -13 9 -16 8 C-13.71125827 6.66141476 -11.41930344 5.32898986 -9.125 4 C-8.47402344 3.6184375 -7.82304687 3.236875 -7.15234375 2.84375 C-2.2265625 0 -2.2265625 0 0 0 Z " fill="#7CD3EC" transform="translate(363,287)"/>
<path d="M0 0 C4.23429756 1.31061591 8.07407404 2.94356259 12 5 C12 5.66 12 6.32 12 7 C7.85837086 6.53981898 5.75182176 6.14493915 3 3 C2.01 2.67 1.02 2.34 0 2 C0 1.34 0 0.68 0 0 Z " fill="#A86DE6" transform="translate(405,758)"/>
<path d="M0 0 C-1.89248819 0.67610423 -3.7891602 1.34050439 -5.6875 2 C-7.27111328 2.556875 -7.27111328 2.556875 -8.88671875 3.125 C-11.78362056 3.9391857 -14.01700623 4.17709796 -17 4 C-17 3.34 -17 2.68 -17 2 C-16.39671875 1.86722656 -15.7934375 1.73445312 -15.171875 1.59765625 C-14.37265625 1.42105469 -13.5734375 1.24445312 -12.75 1.0625 C-11.96109375 0.88847656 -11.1721875 0.71445312 -10.359375 0.53515625 C-8.03739003 0.03948164 -8.03739003 0.03948164 -5.953125 -0.62890625 C-3.67283282 -1.06216176 -2.18947773 -0.7037607 0 0 Z " fill="#AC76E9" transform="translate(609,743)"/>
<path d="M0 0 C0.66796875 1.76953125 0.66796875 1.76953125 1 4 C-0.07421875 5.88671875 -0.07421875 5.88671875 -1.6875 7.6875 C-2.20699219 8.28949219 -2.72648438 8.89148438 -3.26171875 9.51171875 C-5.18015576 11.15424572 -6.53373097 11.59701487 -9 12 C-8.67 11.34 -8.34 10.68 -8 10 C-7.34 10 -6.68 10 -6 10 C-5.7525 9.46375 -5.505 8.9275 -5.25 8.375 C-3.70303025 5.43575748 -1.86985631 2.74245592 0 0 Z " fill="#9A7AE7" transform="translate(766,696)"/>
<path d="M0 0 C-1.98 0.66 -3.96 1.32 -6 2 C-6 2.66 -6 3.32 -6 4 C-11.75 7 -11.75 7 -14 7 C-14 6.34 -14 5.68 -14 5 C-12.68 4.67 -11.36 4.34 -10 4 C-10 3.34 -10 2.68 -10 2 C-8.71211992 1.46987262 -7.41953322 0.9511671 -6.125 0.4375 C-5.40570313 0.14746094 -4.68640625 -0.14257812 -3.9453125 -0.44140625 C-2 -1 -2 -1 0 0 Z " fill="#A081E6" transform="translate(355,663)"/>
<path d="M0 0 C2.97 0 5.94 0 9 0 C6.83450189 2.16549811 5.8751666 2.35076883 3 3 C1.50256881 4.49743119 1.66797307 5.98824239 1.4375 8.0625 C1.293125 9.361875 1.14875 10.66125 1 12 C0.67 12 0.34 12 0 12 C0 8.04 0 4.08 0 0 Z " fill="#7E73E6" transform="translate(351,607)"/>
<path d="M0 0 C3.51769206 5.27653809 3.10579441 10.86392402 3 17 C2.67 17 2.34 17 2 17 C-0.01167675 11.21642935 -0.22084624 6.09781001 0 0 Z " fill="#9BA0EA" transform="translate(676,578)"/>
<path d="M0 0 C1.423125 0.495 1.423125 0.495 2.875 1 C5.77062452 2.10159191 5.77062452 2.10159191 8 2 C8.99 3.485 8.99 3.485 10 5 C12.56282742 5.72965366 12.56282742 5.72965366 15 6 C14.67 6.66 14.34 7.32 14 8 C8.76481294 6.56032356 4.36973991 4.18303389 0 1 C0 0.67 0 0.34 0 0 Z " fill="#B773EB" transform="translate(433,794)"/>
<path d="M0 0 C0 0.33 0 0.66 0 1 C-2.29077041 1.66988586 -4.58251459 2.33603162 -6.875 3 C-7.85146484 3.28617188 -7.85146484 3.28617188 -8.84765625 3.578125 C-13.7734375 5 -13.7734375 5 -16 5 C-16 4.34 -16 3.68 -16 3 C-14.35 3 -12.7 3 -11 3 C-11 2.34 -11 1.68 -11 1 C-7.26562152 0.12132271 -3.83225427 -0.08912219 0 0 Z " fill="#A68CEA" transform="translate(561,659)"/>
<path d="M0 0 C0.66 0.33 1.32 0.66 2 1 C-1.63 4.63 -5.26 8.26 -9 12 C-9 8.00102358 -7.64683965 6.93298448 -5 4 C-3.36643049 2.62631655 -1.7074998 1.28062485 0 0 Z " fill="#EDD8FA" transform="translate(506,814)"/>
<path d="M0 0 C0.99 0.33 1.98 0.66 3 1 C1.1875 3 1.1875 3 -1 5 C-1.99 5 -2.98 5 -4 5 C-4 5.66 -4 6.32 -4 7 C-5.65 7.33 -7.3 7.66 -9 8 C-8.67 7.34 -8.34 6.68 -8 6 C-7.34 6 -6.68 6 -6 6 C-5.67 5.01 -5.34 4.02 -5 3 C-4.01 3 -3.02 3 -2 3 C-1.34 2.01 -0.68 1.02 0 0 Z " fill="#AA5FE9" transform="translate(609,784)"/>
<path d="M0 0 C-1 3 -1 3 -4.375 4.75 C-8 6 -8 6 -11 5 C-4.63636364 0 -4.63636364 0 0 0 Z " fill="#AD7CE8" transform="translate(620,736)"/>
<path d="M0 0 C2.32378307 3.4856746 2.63078302 5.86476981 3 10 C2.67 10.99 2.34 11.98 2 13 C1.34 13 0.68 13 0 13 C0 8.71 0 4.42 0 0 Z " fill="#AC87E9" transform="translate(302,685)"/>
<path d="M0 0 C-1.58074564 0.81752303 -3.16471223 1.62881997 -4.75 2.4375 C-5.63171875 2.88996094 -6.5134375 3.34242188 -7.421875 3.80859375 C-9.64198566 4.83455398 -11.61444619 5.51508603 -14 6 C-4.91506733 -1.52751564 -4.91506733 -1.52751564 0 0 Z " fill="#81D3ED" transform="translate(371,304)"/>
<path d="M0 0 C-1.23165443 3.69496329 -2.88224921 4.35395945 -6.2109375 6.1484375 C-8.1138894 7.05420937 -9.91585276 7.66653644 -12 8 C-4.57142857 0 -4.57142857 0 0 0 Z " fill="#BC79E9" transform="translate(560,797)"/>
<path d="M0 0 C0.66 0.33 1.32 0.66 2 1 C0.3790787 2.17232685 -1.24686833 3.3377077 -2.875 4.5 C-3.77992188 5.1496875 -4.68484375 5.799375 -5.6171875 6.46875 C-8 8 -8 8 -10 8 C-10 7.34 -10 6.68 -10 6 C-7.8828125 4.45703125 -7.8828125 4.45703125 -5.125 2.8125 C-4.22007812 2.26207031 -3.31515625 1.71164062 -2.3828125 1.14453125 C-1.20332031 0.57798828 -1.20332031 0.57798828 0 0 Z " fill="#9C64E6" transform="translate(633,727)"/>
<path d="M0 0 C-4.75 2 -4.75 2 -7 2 C-7.66 3.32 -8.32 4.64 -9 6 C-9.66 5.67 -10.32 5.34 -11 5 C-10 2 -10 2 -7.1875 0.25 C-4.03596914 -0.98589446 -3.03070628 -1.28222189 0 0 Z " fill="#9976E5" transform="translate(688,720)"/>
<path d="M0 0 C0.33 1.32 0.66 2.64 1 4 C-0.1446875 4.680625 -0.1446875 4.680625 -1.3125 5.375 C-3.23632814 6.53824492 -5.12941224 7.7529415 -7 9 C-9.1875 8.625 -9.1875 8.625 -11 8 C-9.93458984 7.51080078 -9.93458984 7.51080078 -8.84765625 7.01171875 C-7.92855469 6.57472656 -7.00945313 6.13773437 -6.0625 5.6875 C-5.14597656 5.25824219 -4.22945312 4.82898438 -3.28515625 4.38671875 C-0.69030588 3.14921339 -0.69030588 3.14921339 0 0 Z " fill="#75CCED" transform="translate(706,351)"/>
<path d="M0 0 C-1.09758507 0.84198307 -2.20335317 1.67330671 -3.3125 2.5 C-3.92738281 2.9640625 -4.54226563 3.428125 -5.17578125 3.90625 C-7 5 -7 5 -10 5 C-9 2 -9 2 -6.125 0.25 C-3 -1 -3 -1 0 0 Z " fill="#AE62E7" transform="translate(570,793)"/>
<path d="M0 0 C4.35822837 0.19810129 7.08177878 0.67951919 10.75 3.125 C8.97950311 3.17910687 7.20853151 3.21784119 5.4375 3.25 C3.95830078 3.28480469 3.95830078 3.28480469 2.44921875 3.3203125 C-0.25 3.125 -0.25 3.125 -3.25 1.125 C-2.25 0.125 -2.25 0.125 0 0 Z " fill="#AC6BEB" transform="translate(470.25,749.875)"/>
<path d="M0 0 C0.66 0.33 1.32 0.66 2 1 C0.71034824 2.37562854 -0.62689293 3.70766393 -2 5 C-2.66 5 -3.32 5 -4 5 C-4.33 5.66 -4.66 6.32 -5 7 C-5.99 6.34 -6.98 5.68 -8 5 C-6.71475739 4.13619741 -5.42157581 3.28419631 -4.125 2.4375 C-3.04605469 1.72400391 -3.04605469 1.72400391 -1.9453125 0.99609375 C-1.30335938 0.66738281 -0.66140625 0.33867188 0 0 Z " fill="#AA85E7" transform="translate(657,735)"/>
<path d="M0 0 C0.33 0.66 0.66 1.32 1 2 C0.22265625 4.1640625 0.22265625 4.1640625 -0.9375 6.625 C-1.31777344 7.44226563 -1.69804687 8.25953125 -2.08984375 9.1015625 C-2.39019531 9.72804688 -2.69054687 10.35453125 -3 11 C-3.66 11 -4.32 11 -5 11 C-4.54917531 9.53932801 -4.08906463 8.08151968 -3.625 6.625 C-3.36976563 5.81289063 -3.11453125 5.00078125 -2.8515625 4.1640625 C-2 2 -2 2 0 0 Z " fill="#77CBEC" transform="translate(369,355)"/>
<path d="M0 0 C0.66 0.33 1.32 0.66 2 1 C-0.53351206 4.80026809 -2.74894043 5.50840015 -7 7 C-7.99 6.67 -8.98 6.34 -10 6 C-8.3811004 4.96951963 -6.75467511 3.95085322 -5.125 2.9375 C-4.22007812 2.36902344 -3.31515625 1.80054688 -2.3828125 1.21484375 C-1.20332031 0.61349609 -1.20332031 0.61349609 0 0 Z " fill="#78D1EC" transform="translate(327,306)"/>
<path d="M0 0 C4.8274799 1.41292095 8.7162359 3.42974154 13 6 C11.296875 6.6796875 11.296875 6.6796875 9 7 C6.640625 5.8203125 6.640625 5.8203125 4.25 4.125 C3.45078125 3.57070313 2.6515625 3.01640625 1.828125 2.4453125 C1.22484375 1.96835937 0.6215625 1.49140625 0 1 C0 0.67 0 0.34 0 0 Z " fill="#7EDAEE" transform="translate(602,268)"/>
<path d="M0 0 C3 3 3 3 3.07421875 5.91796875 C2.94660156 6.99691406 2.81898438 8.07585937 2.6875 9.1875 C2.56761719 10.27417969 2.44773437 11.36085938 2.32421875 12.48046875 C2.21722656 13.31191406 2.11023438 14.14335938 2 15 C1.34 15 0.68 15 0 15 C0 10.05 0 5.1 0 0 Z " fill="#ADBEEC" transform="translate(295,502)"/>
<path d="M0 0 C0.66 0.33 1.32 0.66 2 1 C1.04882866 2.1725131 0.08882991 3.33787015 -0.875 4.5 C-1.40867187 5.1496875 -1.94234375 5.799375 -2.4921875 6.46875 C-2.98976563 6.9740625 -3.48734375 7.479375 -4 8 C-4.66 8 -5.32 8 -6 8 C-4.55746343 4.63408134 -2.66735273 2.48952921 0 0 Z " fill="#D7DFF6" transform="translate(737,501)"/>
<path d="M0 0 C1.62723299 0.45034123 3.25173664 0.91055354 4.875 1.375 C5.77992188 1.63023437 6.68484375 1.88546875 7.6171875 2.1484375 C10 3 10 3 12 5 C9.36 4.67 6.72 4.34 4 4 C4 3.34 4 2.68 4 2 C2.68 1.67 1.36 1.34 0 1 C0 0.67 0 0.34 0 0 Z " fill="#9FC2EB" transform="translate(525,476)"/>
<path d="M0 0 C-4 2 -8 4 -12 6 C-10.9200311 2.86809018 -9.99049526 1.99400788 -7.125 0.1875 C-3.8542803 -1.05537349 -3.15139514 -1.00271664 0 0 Z " fill="#74CBEA" transform="translate(276,326)"/>
<path d="M0 0 C0.33 0.66 0.66 1.32 1 2 C-0.98 4.97 -2.96 7.94 -5 11 C-6 7 -6 7 -4.6875 4.75 C-3.8521875 3.88375 -3.8521875 3.88375 -3 3 C-2.34 3 -1.68 3 -1 3 C-0.67 2.01 -0.34 1.02 0 0 Z " fill="#9C82E4" transform="translate(252,664)"/>
<path d="M0 0 C0.66 0.33 1.32 0.66 2 1 C-1.19990508 3.74277578 -4.00499382 5.6302836 -8 7 C-6.88424427 3.65273281 -6.48655378 3.37920252 -3.5625 1.75 C-2.386875 1.1725 -1.21125 0.595 0 0 Z " fill="#C26EEB" transform="translate(531,851)"/>
<path d="M0 0 C0.66 0.33 1.32 0.66 2 1 C0.875 2.9375 0.875 2.9375 -1 5 C-4.1875 5.75 -4.1875 5.75 -7 6 C-4.74259377 3.66475218 -2.7194239 1.81294927 0 0 Z " fill="#B67BE9" transform="translate(596,773)"/>
<path d="M0 0 C-1.49097658 3.7952131 -3.75700849 5.61042731 -7 8 C-4.18918919 0 -4.18918919 0 0 0 Z " fill="#D6DFF4" transform="translate(274,496)"/>
<path d="M0 0 C-1.1875 1.5 -1.1875 1.5 -3 3 C-5.6875 3.1875 -5.6875 3.1875 -8 3 C-8 2.34 -8 1.68 -8 1 C-3.375 -1.125 -3.375 -1.125 0 0 Z " fill="#68BAE5" transform="translate(303,381)"/>
<path d="M0 0 C-3.72965139 2.03435531 -5.66905042 3 -10 3 C-6.81859267 -0.48439851 -4.56758339 -1.41752588 0 0 Z " fill="#5FC5EA" transform="translate(270,310)"/>
<path d="M0 0 C0.66 0.33 1.32 0.66 2 1 C0.8803014 2.00593243 -0.2459412 3.0045849 -1.375 4 C-2.00148438 4.556875 -2.62796875 5.11375 -3.2734375 5.6875 C-5 7 -5 7 -7 7 C-6.67 6.01 -6.34 5.02 -6 4 C-3.9375 3.3125 -3.9375 3.3125 -2 3 C-2 2.34 -2 1.68 -2 1 C-1.34 0.67 -0.68 0.34 0 0 Z " fill="#9C67E8" transform="translate(642,720)"/>
<path d="M0 0 C1.46911544 3.81970016 0.52561108 6.30641529 -1 10 C-1.66 10.66 -2.32 11.32 -3 12 C-2.40075776 7.80530429 -1.42500059 3.99000166 0 0 Z " fill="#95D5EF" transform="translate(363,366)"/>
<path d="M0 0 C0 0.99 0 1.98 0 3 C-2.27837542 5.27837542 -3.50812237 5.96646289 -6.75 6.1875 C-7.86375 6.0946875 -7.86375 6.0946875 -9 6 C-6.59027489 3.59027489 -4.04587368 2.49053393 -1 1 C-0.67 0.67 -0.34 0.34 0 0 Z " fill="#6DC7EC" transform="translate(758,358)"/>
<path d="M0 0 C-2.97 1.65 -5.94 3.3 -9 5 C-9 4.01 -9 3.02 -9 2 C-5.3823098 -0.81375904 -4.61553765 -1.15388441 0 0 Z " fill="#54C4E8" transform="translate(339,303)"/>
<path d="M0 0 C0.66 0.66 1.32 1.32 2 2 C-3.75 6 -3.75 6 -6 6 C-4.75453595 2.26360784 -3.36595047 1.81243487 0 0 Z " fill="#A74BE9" transform="translate(582,801)"/>
<path d="M0 0 C0.66 0.33 1.32 0.66 2 1 C-0.31 3.31 -2.62 5.62 -5 8 C-5.33 7.34 -5.66 6.68 -6 6 C-4 4 -2 2 0 0 Z " fill="#E6F5F8" transform="translate(269,328)"/>
</svg>
